<?xml version="1.0" encoding="UTF-8"?>
<svg id="layer_1" data-name="layer 1" xmlns="http://www.w3.org/2000/svg" viewBox="0 0 1000 500">
  <defs>
    <style>
      .cls-1 {
        fill: #fffddb;
      }

      .cls-2 {
        fill: #ccc564;
      }
    </style>
  </defs>
  <path class="cls-2" d="M918.8,133.08c2.29,.01,4.63-.13,7.01-.39,10.46-1.17,20.5-4.66,30.59-7.68,26.26-7.88,53.44-12.72,80.81-14.4,1.81-.11,3.86-.13,5.16,1.14,1.11,1.08,1.32,2.77,1.41,4.33,.74,12.01-1.26,24-2.51,35.97-6.26,59.87,5.68,122.86-16.3,178.89-12.66-6.12-27.3-5.89-41.31-7.14-26.59-2.37-52.29-10.46-78.49-15.6-59.31-11.65-117.45-1-176.97-2.68-21.92-.62-43.83-1.54-65.76-2.11-43.33-1.13-86.89-.85-129.84,5.68-92.82,14.11-187.77,6.98-280.3-8.91-22.26-3.82-43.63-11.17-65.58-15.36-21.87-4.18-43.06-4.42-65.16-1.72-43.46,5.31-88.82,19.3-132.22,6.15-3.01-.91-6.1-2.02-8.3-4.27-1.91-1.95-2.96-4.55-3.92-7.1-11.49-30.74-14.87-64.48-9.7-96.89,.3-1.87,.7-3.88,2.08-5.17,1.63-1.52,4.1-1.57,6.32-1.53,46.05,.82,92.15,4.78,138.1,1.73,17.52-1.16,23.15-17.81,42.88-11.89,5.62,1.68,11.71,5.91,13.59,11.47,4-6.14,11.79-11.09,19.08-10.24-2.86-2.5-3.33-6.97-1.93-10.5,1.4-3.52,4.31-6.23,7.41-8.4,12.05-8.45,28.45-10.29,42.07-4.73,3.31,1.35,7.18,2.82,8.74,6.02,1.61-2.02,3.38-4.15,5.83-4.96,2.12-.7,5.97-1.24,7.25,.25-1.24-3.12-.62-6.85,1.1-9.78,.06-.11,.13-.21,.19-.31,2.04-3.26,5.27-5.61,8.63-7.49,11.23-6.28,26.11-7.76,36.58-.27,3.05,2.18,6.92,6.26,9.31,9.44,.01-.32,.16-.72,.37-.96,5.82-6.74,15.43-9.97,24.14-8.12,8.71,1.85,16.17,8.71,18.74,17.24,3.77-2.82,7.86-.86,12.19,1,3.82,1.65,7.8,4.02,9.11,7.98,.87,2.64,.38,5.5-.11,8.24-.46,2.55-.93,5.1-1.39,7.65,2.7-1.24,6.61-.25,9.55,.19,2.93,.45,5.77,2.72,5.95,5.69,.25-1.24,1.43-1.43,1.92-2.6,.77-1.78,2.22-3.34,4.09-3.81,1.88-.46,4.12,.44,4.8,2.25,.47-4.58,4.77-6.83,9.03-8.59,5.89-2.45,12.56-3.36,18.71-1.69,6.16,1.68,11.68,6.16,13.81,12.17,.92-.78,3.77-.69,4.73,.04,.97,.72,1.33,2.14,.84,3.24,2-3.09,6.02-1.6,9.51-.44,3.5,1.16,6.27,3.8,8.85,6.42,.61-2.03,2.04-1.99,4.16-2.12,2.11-.13,4.24,1.18,5.09,3.12,2.92-6.6,8.9-9.7,16.11-9.62,3.49,.04,7.44,1.52,8.51,4.84,6.72-.31,13.56,4.35,17.03,10.46,1.2,2.1,1.99,4.37,2.25,6.68,4.32-3.56,8.88-3.9,14.47-3.55,5.6,.34,11.02,2.87,14.87,6.94,.7,.74,1.29,2.02,.81,2.75,2.75-2.5,4.68-1.78,8.47-.69,3.95,1.13,7.18,4.49,8.14,8.48,.43-3.83,5.8-4.87,9.42-3.53-.93-3.66,4.87-6,7.94-8.19,2.26-1.61,4.81-3.05,7.58-3.16,2.77-.11,5.79,1.52,6.44,4.21,.33-2.54,1.93-2.84,4.13-3.92,0,0,.02-.01,.04-.01,.13-.07,.27-.13,.41-.21,2.42-1.28,5.24-1.61,7.97-1.5,6.29,.26,12.46,2.89,17.01,7.23,.55-1.19,.95-2.62,1.63-3.77,.36-.62,.81-1.16,1.4-1.54,1.71-1.1,4.42-.87,5.29,.96,.15-1.38,.74-2.65,1.59-3.81,1.73-2.35,4.55-4.22,7.06-5.53,3.74-1.95,8.44-1.92,12.15,.08-.22-.61-.39-1.23-.49-1.85-.67-4.05,1.02-8.37,3.79-11.65,.75-.9,1.59-1.72,2.47-2.44,4.65-3.76,11.18-4.74,17-3.32,5.81,1.43,10.92,5.03,14.91,9.49,.51-.86,1.19-1.48,1.99-1.89,1.4-.72,3.12-.81,4.84-.45-2.55-.81-4.07-3.76-3.59-6.4,.48-2.63,3.1-4.69,5.76-4.55-5.22-6.96-6.53-17.4-2.65-25.19,.39-.78,.83-1.54,1.31-2.26,4.28-6.54,11.94-10.8,19.77-10.81,8.71-.02,17.22,5.21,21.13,12.99,3.1-4.35,8.07-5.34,13.26-4.07s9.39,5.91,10.13,11.21c2.26-1.91,4.76-.56,7.48,.61,2.71,1.18,4.64,3.97,4.79,6.92,7.72,1.6,13.14,9.37,13.72,17.24,.5,6.78-3.24,13.62-9.03,17.12,2.83-.47,6.42,.65,8.42,2.65,.49,.48,.89,1.03,1.15,1.62,2.48-8.65,11.4-14.13,20.28-12.67-4.76-8.36-3.84-19.08,.92-27.44,4.77-8.36,14.12-13.9,23.74-14.07-2.77-2.35-3.07-7.86-2.16-11.39,.91-3.52,3.95-6.41,7.52-7.13,3.37-9.13,15.12-16.15,24.78-14.91,5.71,.73,10.95,4,14.44,8.53,1.66,2.16,2.2,4.84,3.66,6.99,2.01,2.96,2.38,2.98,4.96,5.53,7.04,6.93,15.64,9.52,25.05,9.57Z"/>
  <path class="cls-1" d="M520.4,187.21c-2.65,4.26-6.21,7.97-10.43,10.68-9.85,6.32-22.92,7.08-33.42,1.9,.83-4.18-1.04-8.78-4.55-11.19-3.51-2.42-9.38-3.34-12.99-1.07-2.09-1.73-5.15-2.2-7.66-1.19-2.51,1.02-4.79,3.05-5.1,5.74-3.04-2.56-6.8-3.5-9.66-.76,1.46-4.26,1.05-9.12-1.08-13.09-6.28-11.67-20.18-11.98-27.22-.95-2.73,4.28-4.87,8.05-4.84,13.13-2.55-3.59-7.17-5.58-11.14-3.67,.32-1.97-.53-4.09-2.14-5.27-1.6-1.19-3.48-2.04-5.27-1.17-2.93-1.79-6.75-2.02-9.88-.61-3.12,1.42-5.79,3.71-6.38,7.09-.69-3.34-3.97-6.83-7.27-5.92,3.78-4.45,7.65-9.08,9.26-14.68,1.49-5.17,.32-13.67-4.91-16.68-5.97-3.45-10.71,3.89-12.27,8.57-.32-9.61-7.3-18.64-16.53-21.37-9.23-2.72-20,1.05-25.49,8.94-1.17-5.37-4.98-6.86-9.24-9.17-3.82-2.08-7.01-4.74-11.25-6.21-10.12-3.49-21.71-2.3-31,2.98,.06-.11,.13-.21,.19-.31,2.04-3.26,5.27-5.61,8.63-7.49,11.23-6.28,26.11-7.76,36.58-.27,3.05,2.18,6.92,6.26,9.31,9.44,.01-.32,.16-.72,.37-.96,5.82-6.74,15.43-9.97,24.14-8.12,8.71,1.85,16.17,8.71,18.74,17.24,3.77-2.82,7.86-.86,12.19,1,3.82,1.65,7.8,4.02,9.11,7.98,.87,2.64,.38,5.5-.11,8.24-.46,2.55-.93,5.1-1.39,7.65,2.7-1.24,6.61-.25,9.55,.19,2.93,.45,5.77,2.72,5.95,5.69,.25-1.24,1.43-1.43,1.92-2.6,.77-1.78,2.22-3.34,4.09-3.81,1.88-.46,4.12,.44,4.8,2.25,.47-4.58,4.77-6.83,9.03-8.59,5.89-2.45,12.56-3.36,18.71-1.69,6.16,1.68,11.68,6.16,13.81,12.17,.92-.78,3.77-.69,4.73,.04,.97,.72,1.33,2.14,.84,3.24,2-3.09,6.02-1.6,9.51-.44,3.5,1.16,6.27,3.8,8.85,6.42,.61-2.03,2.04-1.99,4.16-2.12,2.11-.13,4.24,1.18,5.09,3.12,2.92-6.6,8.9-9.7,16.11-9.62,3.49,.04,7.44,1.52,8.51,4.84,6.72-.31,13.56,4.35,17.03,10.46Z"/>
  <path class="cls-1" d="M410.4,223.04c-.14-5.76-1.39-11.59-4.43-16.48-3.04-4.89-8.02-8.74-13.71-9.61s-12.48,1.09-15.41,6.05c-.89-1.68-3-2.61-4.85-2.14-1.84,.47-3.76,1.29-3.74,3.19-5.67-4.26-16.2-3.95-21.14,1.14,2.94-6.44,1.67-14.58-3.08-19.83-4.75-5.25-12.72-7.31-19.43-5.03-3.82,1.3-8.63,3.19-9.38,7.15,.02-1.74-1.22-3.41-2.89-3.9-1.67-.48-3.66-.44-4.57,1.04-.52-3.47-2.86-6.62-6.04-8.12-3.17-1.5-6.47-2.71-9.48-.91,1.78-4.85,.26-10.48-2.91-14.57-3.17-4.09-7.76-6.84-12.49-8.94-2.7-1.2-5.54-2.22-8.49-2.29s-6.05,.95-7.91,3.25c4.24-.01,8.13,.9,12.09,2.43,5.99,2.3,10.42,8.19,10.98,14.58,.56,6.39-2.8,12.96-8.29,16.26,2.68-.38,7.37,.1,10.06,.41,2.69,.3,5.39,1.31,7.25,3.28,1.86,1.97,2.71,5,1.67,7.5,2.75-3.06,8.08-3.23,12.16-2.77,1.03,.12,2.1,.38,2.84,1.1,.75,.72,1.04,1.99,.39,2.8,2.94-3.59,7.74-6.7,12.1-8.28,4.36-1.57,10.01-.5,12.3,3.53,1.59,2.79,1.26,6.27,.55,9.4-1.27,5.64-4.12,11.55-9.5,13.66,1.77-1.88,5.55-1.07,8.12-.83s5,1.7,6.4,3.87c5.4-5.39,14.32-6.77,21.83-5.41,3.04,.55,6.39,2.15,7.03,5.18,5.57-4.92,13.24-5.91,20.64-5.22,7.4,.69,16.78,2.64,21.33,8.51Z"/>
  <path class="cls-1" d="M349.22,158.06s-.1-.47-.27-1.32c-.18-.84-.52-2.05-1.07-3.46-1.07-2.82-3.21-6.48-6.6-9.42-3.39-2.94-7.31-4.54-10.26-5.21-1.48-.34-2.71-.5-3.58-.57-.87-.05-1.35-.08-1.35-.08,0,0,.47-.11,1.34-.24,.87-.13,2.15-.24,3.74-.15,3.14,.16,7.69,1.37,11.49,4.66,3.79,3.3,5.63,7.62,6.23,10.71,.32,1.56,.39,2.84,.38,3.72,0,.88-.05,1.36-.05,1.36Z"/>
  <path class="cls-1" d="M368.17,155.9s-.04-.22-.11-.62c-.07-.39-.23-.93-.49-1.54-.51-1.21-1.59-2.66-3.12-3.55-1.53-.88-3.33-1.08-4.63-.91-.66,.08-1.2,.22-1.57,.35-.38,.14-.59,.22-.59,.22,0,0,.13-.19,.41-.49,.28-.31,.75-.71,1.43-1.07,.68-.36,1.58-.66,2.64-.71,1.05-.05,2.26,.17,3.37,.8,1.1,.64,1.9,1.57,2.38,2.51,.49,.94,.69,1.87,.71,2.64,.03,.77-.09,1.38-.21,1.77-.12,.4-.22,.6-.22,.6Z"/>
  <path class="cls-1" d="M379.76,157.36s-.09-.4-.25-1.13c-.17-.72-.48-1.74-.98-2.92-.98-2.37-2.94-5.38-5.96-7.64-3.03-2.25-6.48-3.26-9.03-3.52-1.28-.14-2.34-.14-3.08-.1-.74,.05-1.15,.08-1.15,.08,0,0,.38-.17,1.09-.41,.71-.24,1.78-.51,3.15-.63,1.36-.13,3.03-.07,4.83,.36,1.79,.42,3.71,1.24,5.45,2.52,1.73,1.3,3.06,2.9,3.98,4.49,.92,1.6,1.46,3.18,1.73,4.52,.27,1.34,.32,2.45,.3,3.2-.02,.75-.08,1.16-.08,1.16Z"/>
  <path class="cls-1" d="M305.34,144.81s-.27-.41-.76-1.15c-.23-.37-.53-.82-.92-1.31-.38-.49-.78-1.08-1.31-1.65-.5-.59-1.06-1.24-1.71-1.87-.61-.67-1.36-1.29-2.11-1.97-1.56-1.3-3.35-2.61-5.35-3.8-2.02-1.16-4.05-2.07-5.95-2.78-.96-.31-1.87-.65-2.76-.86-.87-.26-1.7-.42-2.47-.57-.76-.18-1.46-.23-2.08-.32-.62-.1-1.15-.14-1.59-.16-.89-.06-1.38-.1-1.38-.1,0,0,.49-.08,1.36-.23,.44-.08,.99-.16,1.62-.18,.64-.03,1.37-.11,2.17-.06,.81,.02,1.7,.06,2.64,.2,.95,.09,1.95,.33,3,.57,2.08,.56,4.31,1.42,6.48,2.66,2.15,1.27,4,2.79,5.51,4.33,.73,.8,1.43,1.54,1.98,2.33,.59,.75,1.07,1.5,1.48,2.2,.44,.67,.74,1.35,1.02,1.92,.29,.57,.49,1.08,.64,1.5,.3,.84,.47,1.3,.47,1.3Z"/>
  <path class="cls-1" d="M289.63,193.9s-.04-.2-.11-.57c-.07-.36-.21-.86-.43-1.42-.44-1.13-1.31-2.5-2.58-3.52-1.27-1.02-2.79-1.58-3.99-1.77-.6-.1-1.12-.12-1.48-.12-.37,.01-.57,.02-.57,.02,0,0,.16-.13,.48-.33,.32-.2,.83-.45,1.51-.62,1.33-.36,3.54-.28,5.37,1.18,1.81,1.47,2.36,3.62,2.3,5-.02,.7-.15,1.25-.28,1.61-.13,.36-.22,.54-.22,.54Z"/>
  <path class="cls-1" d="M282.59,173.53s0-.45-.04-1.25c-.04-.8-.16-1.94-.46-3.3-.58-2.71-2.08-6.32-4.88-9.31-2.81-2.99-6.31-4.72-8.98-5.47-1.34-.39-2.47-.59-3.26-.68-.79-.09-1.24-.12-1.24-.12,0,0,.43-.1,1.24-.21,.81-.11,1.99-.17,3.47-.03,1.47,.14,3.22,.54,5.04,1.34,1.82,.8,3.68,2.04,5.28,3.72,1.58,1.7,2.7,3.65,3.37,5.51,.68,1.87,.97,3.64,1.02,5.11,.05,1.48-.09,2.66-.25,3.46-.16,.8-.29,1.22-.29,1.22Z"/>
  <path class="cls-1" d="M331.33,197.46s-.15-.28-.43-.75c-.28-.47-.74-1.12-1.38-1.8-1.27-1.38-3.47-2.85-6.1-3.24-2.63-.38-5.16,.41-6.77,1.36-.81,.47-1.44,.96-1.84,1.33-.41,.37-.63,.6-.63,.6,0,0,.1-.29,.37-.8,.26-.51,.72-1.21,1.46-1.96,.73-.75,1.78-1.51,3.1-2.04,1.32-.53,2.94-.81,4.62-.57,1.68,.26,3.15,.98,4.26,1.87,1.12,.89,1.9,1.92,2.39,2.84,.49,.93,.73,1.74,.83,2.3,.1,.56,.12,.87,.12,.87Z"/>
  <path class="cls-1" d="M327.03,172.05s.12-.33,.29-.91c.18-.58,.35-1.44,.41-2.48,.13-2.06-.42-4.98-2.26-7.3-1.86-2.31-4.58-3.48-6.62-3.81-1.03-.17-1.9-.19-2.51-.15-.61,.04-.95,.09-.95,.09,0,0,.3-.17,.88-.41,.58-.24,1.47-.5,2.63-.58,1.15-.09,2.57,.05,4.04,.59,1.47,.53,3,1.51,4.17,2.96,1.16,1.47,1.78,3.17,1.97,4.72,.2,1.56,.02,2.97-.32,4.07-.34,1.11-.78,1.92-1.14,2.44-.36,.52-.59,.77-.59,.77Z"/>
  <path class="cls-1" d="M345.61,175.25s-.16-.29-.47-.79c-.31-.5-.81-1.18-1.5-1.91-1.37-1.47-3.7-3.07-6.54-3.58-2.84-.51-5.58,.18-7.38,1.07-.91,.44-1.61,.91-2.07,1.27-.46,.36-.72,.58-.72,.58,0,0,.15-.3,.48-.8,.33-.51,.89-1.2,1.74-1.92,.84-.72,2-1.43,3.43-1.91,1.43-.47,3.14-.67,4.89-.36,1.75,.33,3.29,1.11,4.46,2.05,1.18,.94,2.01,2.01,2.55,2.98,.54,.97,.82,1.82,.95,2.41,.13,.59,.17,.92,.17,.92Z"/>
  <path class="cls-1" d="M325.28,174.24s-.32-.47-.88-.97c-.55-.51-1.34-.99-2.15-1.3-.81-.32-1.72-.5-2.47-.49-.75,0-1.3,.12-1.3,.12,0,0,.05-.13,.19-.34,.14-.21,.37-.49,.75-.77,.71-.56,2.13-1.04,3.59-.48,1.46,.58,2.18,1.89,2.33,2.78,.09,.46,.07,.83,.03,1.07-.04,.25-.09,.38-.09,.38Z"/>
  <path class="cls-1" d="M385.94,181.8s-.26-.1-.72-.29c-.46-.18-1.14-.38-1.97-.53-1.65-.3-3.98-.25-6.16,.69-2.18,.94-3.82,2.58-4.75,3.99-.47,.7-.79,1.34-.98,1.79-.19,.46-.29,.72-.29,.72,0,0-.03-.28-.03-.79,0-.51,.08-1.26,.35-2.17,.27-.9,.76-1.94,1.56-2.94,.79-1,1.92-1.93,3.31-2.54,1.4-.59,2.85-.76,4.12-.65,1.28,.11,2.37,.47,3.21,.9,.84,.43,1.44,.89,1.81,1.24,.37,.35,.55,.57,.55,.57Z"/>
  <path class="cls-1" d="M430.61,195.23s.08-.14,.24-.41c.17-.26,.39-.66,.65-1.18,.52-1.04,1.12-2.62,1.41-4.64,.27-2,.2-4.46-.66-6.92-.83-2.46-2.56-4.85-4.94-6.64-2.4-1.78-5.18-2.77-7.77-2.87-2.6-.13-4.98,.49-6.83,1.31-1.85,.85-3.2,1.87-4.05,2.66-.42,.4-.75,.72-.95,.96-.21,.23-.32,.35-.32,.35,0,0,.09-.14,.25-.4,.16-.27,.42-.65,.78-1.12,.72-.94,1.94-2.22,3.8-3.37,1.85-1.12,4.38-2.1,7.35-2.16,2.96-.09,6.26,.91,9.01,2.96,2.74,2.06,4.63,4.94,5.38,7.81,.77,2.87,.55,5.56,0,7.66-.58,2.1-1.46,3.63-2.16,4.59-.36,.48-.64,.84-.86,1.06-.21,.23-.32,.35-.32,.35Z"/>
  <path class="cls-1" d="M417.48,181.8s-.24-.11-.68-.32c-.44-.2-1.08-.43-1.88-.62-1.58-.38-3.83-.42-5.95,.41-2.12,.84-3.73,2.41-4.63,3.77-.46,.68-.77,1.29-.95,1.73-.18,.45-.28,.7-.28,.7,0,0-.04-.27-.04-.77,0-.5,.06-1.23,.32-2.11,.26-.88,.74-1.9,1.53-2.87,.79-.97,1.9-1.86,3.28-2.42,1.38-.54,2.81-.65,4.05-.48,1.24,.17,2.29,.58,3.08,1.05,.79,.47,1.34,.96,1.67,1.33,.34,.37,.49,.59,.49,.59Z"/>
  <path class="cls-1" d="M340.37,141.3s-.25-.15-.71-.41c-.44-.27-1.11-.62-1.93-1.01-.82-.39-1.82-.77-2.92-1.14-1.12-.34-2.35-.65-3.66-.88-1.32-.21-2.58-.32-3.75-.37-1.17-.02-2.23,0-3.13,.11-.9,.09-1.65,.2-2.15,.32-.52,.1-.81,.16-.81,.16,0,0,.24-.16,.68-.46,.44-.3,1.13-.67,2.02-1.04,.89-.37,2.01-.68,3.29-.87,1.28-.16,2.72-.17,4.2,.07,1.48,.26,2.83,.74,3.99,1.31,1.15,.59,2.11,1.25,2.83,1.9,.72,.64,1.25,1.21,1.57,1.64,.32,.42,.49,.66,.49,.66Z"/>
  <path class="cls-1" d="M348.32,145.55s-.23-.21-.66-.59c-.41-.39-1.04-.91-1.81-1.52-.77-.61-1.74-1.27-2.82-1.94-1.1-.65-2.33-1.31-3.66-1.91-1.34-.59-2.64-1.07-3.86-1.46-1.22-.36-2.35-.65-3.32-.82-.97-.18-1.78-.3-2.34-.35-.57-.06-.88-.1-.88-.1,0,0,.31-.08,.86-.23,.56-.15,1.38-.3,2.42-.38,1.04-.09,2.29-.06,3.66,.14,1.37,.22,2.86,.62,4.33,1.27,1.46,.67,2.75,1.52,3.83,2.39,1.06,.9,1.92,1.81,2.54,2.64,.63,.83,1.07,1.54,1.33,2.06,.26,.51,.4,.79,.4,.79Z"/>
  <path class="cls-1" d="M298.38,148.07s-.15-.45-.41-1.26c-.27-.8-.72-1.95-1.37-3.28-1.29-2.68-3.6-6.11-6.98-8.97-3.38-2.86-7.15-4.56-10-5.39-1.43-.42-2.63-.67-3.47-.8-.84-.13-1.31-.2-1.31-.2,0,0,.47-.07,1.33-.13,.86-.06,2.11-.08,3.66,.1,3.07,.33,7.42,1.66,11.15,4.81,3.73,3.16,5.77,7.22,6.61,10.19,.43,1.5,.63,2.74,.71,3.59,.08,.86,.09,1.33,.09,1.33Z"/>
  <path class="cls-1" d="M276.31,170.29s-.43-1.2-1.05-3.11c-.64-1.9-1.48-4.5-3.02-6.87-1.52-2.32-3.69-3.88-5.48-4.46-.89-.3-1.69-.4-2.24-.4-.56,0-.88,.03-.88,.03,0,0,.07-.03,.21-.1,.14-.06,.34-.18,.62-.26,.55-.2,1.41-.38,2.49-.31,2.15,.1,5.18,1.48,7.05,4.34,1.81,2.83,2.15,5.81,2.29,7.82,.11,2.05,.02,3.31,.02,3.31Z"/>
  <path class="cls-1" d="M280.07,161.81s-.27-.16-.75-.46c-.47-.31-1.17-.72-2.02-1.21-1.71-.98-4.1-2.16-6.82-3.23-2.72-1.06-5.28-1.82-7.2-2.27-.96-.22-1.75-.39-2.3-.49-.55-.11-.86-.17-.86-.17,0,0,.31-.06,.87-.16,.56-.1,1.38-.2,2.4-.23,2.04-.08,4.92,.2,7.87,1.35,2.94,1.16,5.25,2.91,6.69,4.36,.73,.72,1.26,1.34,1.6,1.8,.34,.45,.53,.71,.53,.71Z"/>
  <path class="cls-1" d="M286.37,209.36s-.05-.34-.14-.96c-.04-.31-.09-.68-.2-1.1-.1-.42-.17-.9-.35-1.42-.27-1.04-.74-2.22-1.32-3.48-.62-1.24-1.39-2.55-2.32-3.84-.95-1.27-1.98-2.39-2.98-3.35-1.03-.93-2.03-1.72-2.94-2.29-.44-.32-.88-.53-1.25-.75-.37-.23-.71-.39-.99-.51-.56-.27-.87-.42-.87-.42,0,0,.35,.04,.97,.1,.32,.03,.7,.09,1.13,.2,.44,.11,.95,.21,1.48,.43,1.09,.36,2.32,.98,3.59,1.85,1.24,.9,2.5,2.06,3.56,3.48,1.05,1.44,1.79,2.98,2.28,4.43,.46,1.47,.69,2.83,.71,3.98,.05,.57,0,1.09-.03,1.54-.01,.45-.08,.83-.14,1.14-.12,.62-.19,.96-.19,.96Z"/>
  <path class="cls-1" d="M308.69,213.2s-.25-.29-.7-.81c-.46-.51-1.15-1.21-2.07-1.97-1.84-1.52-4.7-3.15-8.13-3.93-3.41-.78-6.74-.57-8.86,.32-1.07,.44-1.81,1.06-2.22,1.58-.21,.26-.36,.48-.44,.64-.09,.16-.13,.24-.13,.24,0,0,.02-.09,.05-.28,.03-.18,.1-.45,.24-.78,.27-.66,.9-1.57,1.99-2.33,2.16-1.53,5.94-2.35,9.84-1.46,3.92,.89,6.86,3.26,8.41,5.24,.79,1,1.29,1.9,1.6,2.52,.28,.64,.43,.99,.43,.99Z"/>
  <path class="cls-1" d="M267.33,207.58s.02-.18,.07-.49c.04-.31,.07-.76,.05-1.27-.03-1.04-.31-2.37-.93-3.58-.62-1.21-1.53-2.22-2.36-2.85-.41-.32-.79-.56-1.06-.71-.28-.15-.44-.24-.44-.24,0,0,.17-.05,.5-.09,.33-.04,.81-.05,1.42,.06,1.18,.2,2.89,1.06,3.82,2.86,.91,1.81,.61,3.7,.08,4.77-.26,.55-.55,.94-.78,1.18-.22,.24-.36,.36-.36,.36Z"/>
  <path class="cls-1" d="M277.83,210.86s-.12-.15-.32-.41c-.21-.26-.52-.61-.92-.99-.8-.77-1.98-1.59-3.36-2.12-1.38-.53-2.81-.73-3.91-.7-.55,.01-1.02,.06-1.34,.11-.33,.05-.52,.09-.52,.09,0,0,.12-.15,.37-.38,.25-.24,.65-.55,1.22-.83,1.1-.58,3.01-.99,4.94-.25,1.93,.75,3.07,2.34,3.49,3.51,.22,.59,.31,1.09,.34,1.44,.03,.34,.02,.53,.02,.53Z"/>
  <path class="cls-1" d="M353.16,193.86s.02-.23,.06-.64c.05-.4,.07-.98,.05-1.67-.02-1.39-.32-3.2-.96-5.09-.65-1.88-1.53-3.49-2.36-4.6-.41-.55-.78-1.01-1.07-1.29-.28-.3-.44-.47-.44-.47,0,0,.22,.07,.61,.19,.4,.12,.96,.38,1.6,.79,.65,.4,1.35,1.01,2.01,1.79,.64,.8,1.23,1.78,1.63,2.9,.38,1.13,.51,2.27,.5,3.29-.04,1.03-.22,1.93-.49,2.65-.26,.72-.54,1.26-.78,1.61-.24,.34-.37,.53-.37,.53Z"/>
  <path class="cls-1" d="M632.63,201.82c-2.82,1.23-5.03,3.83-5.76,6.82-.33-5.29-3.27-10.36-7.7-13.28-4.14-2.72-9.47-3.51-14.22-2.16,.13-.07,.27-.13,.41-.21,2.42-1.28,5.24-1.61,7.97-1.5,6.29,.26,12.46,2.89,17.01,7.23,.55-1.19,.95-2.62,1.63-3.77-.46,2.15-.24,4.41,.66,6.87Z"/>
  <path class="cls-1" d="M712.32,224.38c-.29,.11-.73,.13-1.28-.3-1.43-1.15-3.33-1.54-5.15-1.78-2.9-.38-5.89-.46-8.69,.36-2.81,.81-6.99,1.64-8.27,4.26-2.6-5.46-9.25-8.61-15.12-7.18,1.98-2.08,3.19-5.34,3.09-8.21-.2-6.02-3.52-11.87-8.61-15.11-1.65-1.06-3.61-1.87-5.54-1.52-1.93,.34-3.67,2.21-3.28,4.13-4.22-6.03-11.94-9.38-19.23-8.44,1.73-2.35,4.55-4.22,7.06-5.53,3.74-1.95,8.44-1.92,12.15,.08-.22-.61-.39-1.23-.49-1.85,2.99,.45,5.93,1.33,8.47,2.93,3.05,1.92,5.51,4.96,6.18,8.5,3.97,1.71,8.06,4.84,9.8,8.8,1.73,3.97,1.92,8.59,.49,12.68,3.55-1.69,7.46-2.97,11.37-3.39,3.9-.41,8.01,.21,11.32,2.31,3.2,2.02,5.55,5.53,5.72,9.29Z"/>
  <path class="cls-1" d="M712.34,224.81c0-.14,0-.29-.01-.43,.48-.17,.55-.58,.01,.43Z"/>
  <path class="cls-1" d="M714.3,183.74c-3.8,.51-7.41,2.17-8.24,5.91-.75-2.33-2.79-4.2-5.19-4.73-2.39-.53-4.92-.81-6.59,.98-2.57-6.42-7.93-11.68-14.41-14.12-5.46-2.05-11.63-2.09-17.13-.18,.75-.9,1.59-1.72,2.47-2.44,4.65-3.76,11.18-4.74,17-3.32,5.81,1.43,10.92,5.03,14.91,9.49,.51-.86,1.19-1.48,1.98-1.89h0c1,1.05,2.09,2.01,3.24,2.88,3.61,2.72,7.83,5.53,11.94,7.41Z"/>
  <path class="cls-1" d="M794.47,188.45c-.51,1.5-.92,3.1-1.22,4.84-2.06-2.58-5.4-4.1-8.7-3.95-3.31,.15-6.85,.66-8.66,3.42,2.29-4.61,4.63-9.83,3-14.71-1.35-4.04-5.46-6.89-9.7-7.08-4.25-.18-7.81,.7-10.18,4.23,1.56-3.18,3.14-6.41,3.76-9.89,.62-3.48,.18-7.32-1.99-10.11-2.16-2.79-4.87-5.56-8-3.92,.51-3.32-2.2-6.79-5.55-7.08-3.36-.29-6.97,2.09-7.05,5.45-2.13-7.53-8.07-13.87-15.43-16.51-6.46-2.32-13.88-1.73-19.95,1.47,4.28-6.54,11.94-10.8,19.77-10.81,8.71-.02,17.22,5.21,21.13,12.99,3.1-4.35,8.07-5.34,13.26-4.07s9.39,5.91,10.13,11.21c2.26-1.91,4.76-.56,7.48,.61,2.71,1.18,4.64,3.97,4.79,6.92,7.72,1.6,13.14,9.37,13.72,17.24,.5,6.78-3.24,13.62-9.03,17.12,2.83-.47,6.42,.65,8.42,2.65Z"/>
  <path class="cls-1" d="M658.61,211.47s.02-.46,.02-1.26c0-.81-.08-1.97-.33-3.36-.49-2.76-1.93-6.46-4.78-9.47-2.86-3-6.48-4.63-9.21-5.27-1.37-.33-2.53-.47-3.33-.51-.81-.04-1.26-.05-1.26-.05,0,0,.43-.13,1.24-.28,.81-.16,2.01-.29,3.51-.21,1.5,.08,3.29,.41,5.16,1.17,1.87,.76,3.79,1.98,5.43,3.68,1.62,1.72,2.74,3.71,3.39,5.61,.66,1.91,.91,3.71,.9,5.21,0,1.5-.19,2.69-.39,3.49-.2,.8-.35,1.23-.35,1.23Z"/>
  <path class="cls-1" d="M658.25,218.69s-.05-.21-.14-.58c-.07-.37-.23-.89-.46-1.48-.22-.6-.56-1.26-.97-1.95-.43-.68-.94-1.38-1.54-2.07-.61-.68-1.24-1.27-1.86-1.79-.63-.49-1.25-.92-1.81-1.21-.56-.3-1.06-.53-1.41-.64-.36-.13-.56-.21-.56-.21,0,0,.21-.04,.59-.12,.39-.08,.97-.11,1.68-.04,.72,.06,1.57,.3,2.45,.71,.87,.43,1.75,1.07,2.51,1.91,.74,.85,1.26,1.81,1.58,2.73,.3,.93,.42,1.8,.39,2.52-.02,.72-.12,1.29-.25,1.67-.12,.37-.19,.57-.19,.57Z"/>
  <path class="cls-1" d="M625.57,212.22s-.07-.36-.19-1.01c-.13-.64-.35-1.56-.71-2.65-.71-2.18-2.07-5.02-4.25-7.59-2.18-2.57-4.76-4.38-6.8-5.43-1.02-.53-1.89-.9-2.5-1.13-.62-.23-.97-.36-.97-.36,0,0,.37,0,1.04,.03,.67,.04,1.64,.16,2.81,.47,2.33,.59,5.55,2.13,8.02,5.05,2.48,2.92,3.47,6.34,3.68,8.74,.11,1.21,.08,2.19,0,2.85-.07,.67-.14,1.03-.14,1.03Z"/>
  <path class="cls-1" d="M689.07,228.29s-.18-.23-.52-.64c-.33-.41-.85-.96-1.54-1.55-1.36-1.19-3.5-2.45-6.03-2.92-2.53-.47-4.99-.07-6.68,.54-.85,.3-1.53,.63-1.99,.89-.46,.27-.72,.41-.72,.41,0,0,.16-.25,.51-.67,.34-.42,.9-.99,1.71-1.56,1.57-1.15,4.4-2.26,7.56-1.68,3.16,.6,5.39,2.65,6.44,4.3,.54,.83,.86,1.56,1.03,2.08,.17,.52,.23,.81,.23,.81Z"/>
  <path class="cls-1" d="M692.42,188.84s-.19-.39-.53-1.1c-.34-.7-.89-1.68-1.65-2.82-1.51-2.27-4.04-5.09-7.47-7.23s-7.08-3.17-9.79-3.52c-1.35-.18-2.48-.24-3.26-.24-.78,0-1.22,0-1.22,0,0,0,.41-.14,1.18-.34,.77-.2,1.91-.41,3.34-.49,2.84-.18,7.02,.39,10.86,2.78,3.84,2.39,6.19,5.89,7.28,8.52,.56,1.32,.87,2.44,1.04,3.21,.16,.78,.22,1.21,.22,1.21Z"/>
  <path class="cls-1" d="M693.56,205.41s-.07-.22-.2-.63c-.11-.4-.33-.96-.61-1.61-.56-1.32-1.53-2.96-2.83-4.56-1.31-1.59-2.73-2.87-3.91-3.68-.59-.41-1.09-.73-1.46-.92-.37-.21-.57-.32-.57-.32,0,0,.24,0,.66,0,.43,0,1.05,.08,1.81,.28,.76,.19,1.63,.54,2.54,1.08,.89,.55,1.79,1.29,2.57,2.23,.76,.95,1.31,1.98,1.68,2.96,.34,.99,.52,1.92,.55,2.7,.04,.78,0,1.4-.09,1.83-.08,.42-.12,.65-.12,.65Z"/>
  <path class="cls-1" d="M707.13,201.24s-.22-.05-.63-.13c-.39-.1-.96-.18-1.65-.24-.68-.07-1.49-.05-2.35,.02-.87,.09-1.79,.25-2.75,.48-.95,.26-1.84,.58-2.64,.92-.79,.37-1.5,.74-2.06,1.13-.57,.38-1.03,.73-1.32,1.01-.31,.27-.48,.42-.48,.42,0,0,.08-.22,.21-.61,.14-.4,.41-.94,.85-1.57,.43-.63,1.08-1.3,1.9-1.92,.83-.59,1.86-1.12,3.01-1.43,1.16-.29,2.31-.33,3.32-.22,1.02,.14,1.91,.41,2.59,.75,.69,.33,1.2,.67,1.51,.95,.31,.27,.48,.43,.48,.43Z"/>
  <path class="cls-1" d="M732.91,150.54s-.11-.5-.34-1.38c-.23-.88-.65-2.12-1.33-3.55-1.34-2.86-4-6.47-8.03-8.89-4.03-2.41-8.48-3.05-11.63-2.88-1.59,.07-2.88,.29-3.76,.5-.88,.21-1.37,.35-1.37,.35,0,0,.43-.26,1.27-.66,.83-.4,2.09-.89,3.74-1.23,1.64-.35,3.67-.51,5.91-.24,2.23,.27,4.67,1.01,6.93,2.35,2.25,1.37,4.06,3.16,5.35,5,1.3,1.84,2.11,3.71,2.58,5.32,.47,1.61,.64,2.95,.68,3.88,.04,.92,.01,1.43,.01,1.43Z"/>
  <path class="cls-1" d="M746.9,181.06s-.21-.53-.69-1.41c-.48-.88-1.26-2.1-2.49-3.35-1.22-1.24-2.89-2.5-4.97-3.32-2.08-.82-4.56-1.22-7.09-.92l-.47,.06-.55,.1-.99,.22-.49,.11-.24,.05s-.05-.14-.07-.2c-.16-.6-.31-1.2-.46-1.79-.1-.3-.19-.59-.28-.89-.4-1.15-.92-2.22-1.5-3.19-1.16-1.95-2.59-3.48-3.93-4.6-1.34-1.13-2.6-1.85-3.5-2.29-.44-.24-.81-.37-1.05-.48-.25-.11-.37-.16-.37-.16,0,0,.14,.03,.4,.08,.26,.06,.66,.11,1.15,.26,.99,.26,2.41,.76,4,1.74,1.58,.98,3.34,2.43,4.8,4.48,.73,1.02,1.39,2.18,1.9,3.46,.13,.36,.27,.73,.41,1.11,.01,.03,.01,0,.01,0l.46-.08,.55-.07c2.95-.35,5.8,.26,8.07,1.39,2.29,1.13,3.95,2.76,5.05,4.27,1.11,1.52,1.68,2.92,1.99,3.89,.31,.98,.39,1.54,.39,1.54Z"/>
  <path class="cls-1" d="M755.69,203.74s-.18-.24-.51-.67c-.33-.42-.84-1-1.5-1.65-1.32-1.3-3.37-2.78-5.88-3.7-2.51-.92-5.03-1.11-6.88-.98-.92,.06-1.69,.18-2.21,.29-.53,.11-.82,.18-.82,.18,0,0,.24-.19,.7-.48,.46-.3,1.17-.68,2.12-1.01,1.86-.68,4.82-1.07,7.82,.03,3,1.1,5.01,3.31,5.99,5.04,.5,.87,.8,1.62,.96,2.14,.16,.53,.22,.82,.22,.82Z"/>
  <path class="cls-1" d="M740.79,200.43s-.12-.17-.35-.48c-.21-.31-.55-.72-.97-1.19-.85-.95-2.13-2.02-3.66-2.97-1.54-.94-3.08-1.59-4.31-1.91-.61-.16-1.13-.28-1.5-.33-.37-.06-.58-.1-.58-.1,0,0,.2-.08,.55-.23,.36-.15,.9-.3,1.6-.4,.7-.1,1.55-.09,2.48,.07,.92,.18,1.93,.53,2.87,1.1,.93,.58,1.7,1.31,2.28,2.05,.57,.76,.97,1.51,1.19,2.18,.23,.66,.34,1.22,.37,1.6,.03,.38,.04,.59,.04,.59Z"/>
  <path class="cls-1" d="M725.03,216.9s-.37-.57-.95-1.47c-.57-.88-1.37-2-2.23-3.21-.87-1.21-1.66-2.32-2.31-3.15-.67-.85-1.08-1.38-1.08-1.38,0,0,.7,.09,1.73,.55,1.02,.45,2.37,1.35,3.38,2.76,1.01,1.41,1.42,2.98,1.52,4.09,.1,1.12-.05,1.81-.05,1.81Z"/>
  <path class="cls-1" d="M737.78,236.66s-.12-.24-.34-.68c-.22-.43-.57-1.04-1.04-1.73-.94-1.39-2.48-3.07-4.5-4.36-2.02-1.3-4.19-1.99-5.85-2.26-.83-.14-1.52-.2-2.01-.22-.49-.02-.76-.03-.76-.03,0,0,.24-.12,.71-.3,.47-.18,1.17-.38,2.08-.51,1.78-.26,4.51-.03,6.97,1.54,2.46,1.58,3.8,3.95,4.32,5.68,.27,.87,.37,1.6,.41,2.1,.04,.5,.03,.77,.03,.77Z"/>
</svg>