<?xml version="1.0" encoding="UTF-8"?>
<svg id="layer_1" data-name="layer 1" xmlns="http://www.w3.org/2000/svg" xmlns:xlink="http://www.w3.org/1999/xlink" viewBox="0 0 1000 500">
  <defs>
    <style>
      .cls-1 {
        fill: #2c9182;
      }

      .cls-2 {
        fill: #166e6e;
      }

      .cls-3 {
        fill: url(#_Áåçûìÿííûé_ãðàäèåíò_166-3);
      }

      .cls-4 {
        fill: url(#_Áåçûìÿííûé_ãðàäèåíò_166-2);
      }

      .cls-5 {
        fill: url(#_Áåçûìÿííûé_ãðàäèåíò_166-4);
      }

      .cls-6 {
        fill: url(#_Áåçûìÿííûé_ãðàäèåíò_166);
      }
    </style>
    <linearGradient id="_Áåçûìÿííûé_ãðàäèåíò_166" data-name="Áåçûìÿííûé ãðàäèåíò 166" x1="545.22" y1="367.05" x2="613.14" y2="149.52" gradientUnits="userSpaceOnUse">
      <stop offset="0" stop-color="#2c9182"/>
      <stop offset=".99" stop-color="#fffed1"/>
    </linearGradient>
    <linearGradient id="_Áåçûìÿííûé_ãðàäèåíò_166-2" data-name="Áåçûìÿííûé ãðàäèåíò 166" x1="639.26" y1="335.7" x2="659" y2="182.85" xlink:href="#_Áåçûìÿííûé_ãðàäèåíò_166"/>
    <linearGradient id="_Áåçûìÿííûé_ãðàäèåíò_166-3" data-name="Áåçûìÿííûé ãðàäèåíò 166" x1="458.05" y1="283.54" x2="496.35" y2="194.17" xlink:href="#_Áåçûìÿííûé_ãðàäèåíò_166"/>
    <linearGradient id="_Áåçûìÿííûé_ãðàäèåíò_166-4" data-name="Áåçûìÿííûé ãðàäèåíò 166" x1="505.46" y1="300.31" x2="534.69" y2="231.76" xlink:href="#_Áåçûìÿííûé_ãðàäèåíò_166"/>
  </defs>
  <path class="cls-1" d="M1074.38,323.53v81.34l-1144.87,1.69v-114.16c48.98-5.61,99.19-7.85,148.61-13.16,51.37-5.53,102.52-12.62,153.55-20.31,55.91-8.43,111.97-17.82,165.85-34.23,26.29-8,52.01-17.7,76.42-29.75,12.51-6.18,24.18-13.33,36.17-20.29,3.27-1.9,25.62-13.66,32.66-16.21,1.15-.42,1.89-.59,2.07-.43,6.41,5.79,13.69,11.9,20.1,17.7,6.19,5.6,12.66,11.36,20.78,14.12,.26,.1,.52,.19,.79,.27,3.53-2.23,5.52-4.02,9.05-6.25,.08,.12,.16,.25,.24,.37,12.15,19.14,30.63,33.63,49.88,47.08,8.71,6.1,17.82,11.69,27.09,17.03,6.33,3.65,11.57,9.1,18.05,12.29,6.19,3.05,13.05,5.52,20.17,7.63,13.74,4.09,28.5,6.89,41.52,10.12,42.2,10.48,85.15,18.3,128.34,24.51,64.18,9.25,128.88,14.97,193.53,20.64Z"/>
  <path class="cls-6" d="M648.6,337.66c-4.33,3.48-10.13,4.42-15.66,4.99-4.04,.42-8.09,.66-12.13,1.09-1.36,.15-2.48,.86-3.79,.94-1.51,.1-3.06-.93-4.24-1.73-5.65-3.85-11.23-7.81-16.72-11.88,3.09,4.31,6.17,8.62,9.26,12.93-1.92,.16-3.85,.14-5.76-.06l-.36,.56c-1.67,.43-3.47-.08-4.93-1-1.46-.92-2.63-2.22-3.79-3.5,1.08,1.49,1.86,3.2,2.26,5-1.68-.61-3.39,1.06-5.17,.93-.98-.07-1.84-.68-2.61-1.29-3.84-3.07-7.07-6.9-9.47-11.19,1.29,4.07,3,8.01,5.1,11.73-4.39,.01-8.43,1.05-12.7,1.71-4.62,.72-8.31,1.82-13.12,1.51-5.16-.33-10.25-1.32-15.32-2.29-4.21-.82-8.55-1.67-12.12-4.04-2.31-1.53-4.23-3.64-6.69-4.9-2.35-1.21-5.03-1.57-7.53-2.41-4.61-1.54-8.64-4.78-11.13-8.96,4.77-1.94,10.52-4.57,14.23-8.26,2.28-2.27,5.66-9.27,9.09-9.35,1.58-.04,3.03,.81,4.35,1.68,11.78,7.77,20.56,19.5,32.52,26.98-8.39-8-17.14-15.63-26.21-22.85-2.35-1.87-4.71-3.71-7.1-5.52-1.49-1.13-4.04-2.19-5.27-3.51-3.93-4.21,6.24-4.3,8.75-4.23,2.93,.08,7.83-.55,10.52,.54,.72,.29,1.3,.86,1.9,1.36,2.46,2.06,5.55,3.16,8.42,4.58,4.36,2.16,8.28,5.12,12.16,8.06-1.47-.4-2.59-1.55-3.64-2.66-2.45-2.59-4.89-5.18-7.34-7.77-.47-.5-.96-1.03-1.16-1.69-.4-1.32,.25-3.21-.98-3.82,.82-.49,1.85-.06,2.78,.13,.93,.2,2.23-.16,2.22-1.11,0-.37-.23-.71-.36-1.06-.34-.94,.03-2.02,.68-2.79,1.72-2.01,4.36-3.72,6.37-5.47,.48-.42,.98-.87,1.17-1.48,.23-.77-.1-1.59-.45-2.32-1.62-3.45-4.16-6.33-6.21-9.51-1.45-2.27-2.25-5.05-4.7-6.52,10.11,6.09,20.22,12.17,30.34,18.26-16.43-13.12-32.94-26.34-51.73-35.94-.9-.46-1.88-1.02-2.14-1.99-.61-2.27,.24-4.98,.38-7.27,1.85-.09,3.48,1.08,5.07,2.02,2.58,1.52,5.45,2.55,8.4,3.02-5.99-4.92-12.75-6.65-19.31-10.27-2.39-1.31-4.59-3.19-6.73-4.87-5.48-4.29-11.09-8.26-15.92-13.32-1.73-1.82-3.51-4.23-2.73-6.61,4.36-.49,8.71-.97,13.06-1.46,3.38-.38,7.57-1.88,10.86-.65,1.24,.47,2.29,1.31,3.37,2.09,2.58,1.85,5.43,3.35,8.42,4.42-2.91-2.57-5.81-5.14-8.72-7.71,1.48-.22,3.06-.5,4.12-1.55,1.25-1.24,1.39-3.17,1.91-4.85,2.14-6.94,10.83-9.83,13.98-16.38,1.66,2.06,1.82,5.17,3.87,6.83,1.07,.87,2.4,1.09,3.62,1.63,1.24,.55,2.07,1.39,3.23,2.03,3.93,2.17,7.45,5.07,10.32,8.52,1.52,1.82,2.86,3.8,4.55,5.46,1.57,1.54,3.42,2.77,5.25,4-1.19-1.21-2.06-2.75-2.48-4.4l8.14,2.99c-5.75-2.54-10.72-6.52-15.62-10.45-2.5-2.01-5-4.01-7.5-6.02-1.44-1.16-2.9-2.33-4.1-3.74-2.48-2.92-5.17-5.42-7.78-8.24-4.42-4.75-3.04-15.13-4.15-21.28-.29-1.62-.6-3.32-.96-5.03,1.15-.42,1.89-.59,2.07-.43,6.41,5.79,13.69,11.9,20.1,17.7,6.19,5.6,12.66,11.36,20.78,14.12,1.31,4.11-.25,9.68,.67,14.03,.8,3.77,1.61,7.53,2.41,11.3,1.6,7.53,5.36,14.18,7.96,21.37-9.99-3.19-19.55-7.69-28.37-13.36,6.26,4.94,12.72,9.78,20.06,12.88,2.38,1.01,5.26,1.43,7.34,2.98,2.19,1.63,4.33,3.38,6.59,4.98,.7,.49,1.42,1,1.9,1.71,.45,.66,.66,1.45,.87,2.22,.67,2.46,1.86,5.31,2.16,7.81,.02,.19,.02,.41-.12,.54-.18,.17-.47,.08-.69,0-.8-.33-1.61-.65-2.41-.98,1.7,1.04,3.4,2.08,5.11,3.13,.22,.14,.44,.27,.62,.46,.31,.33,.45,.78,.61,1.21,1.23,3.33,3.39,6.61,5.05,9.77-.64-1.21-4.54-2.46-5.86-3.45-2.34-1.76-4.87-3.21-7.13-5.08,2.24,3.61,4.53,7.28,7.72,10.08,2.23,1.96,4.85,3.44,7.02,5.46,.1,.09,.21,.2,.25,.33,.04,.14,0,.29-.04,.44-.7,2.51-1.69,4.82-2.52,7.25-.25,.72-1.19,5.42-.91,5.65-8.89-7.22-17.8-14.45-25.79-22.65-1.89-1.94-3.86-4.01-6.46-4.74-1.36-.38-2.8-.37-4.16-.7-4.56-1.1-7.56-5.78-12.09-7.02,4.08,4.1,8.71,7.92,14.25,9.58,1.42,.43,2.91,.71,4.2,1.45,.95,.54,1.75,1.3,2.54,2.05,7.72,7.3,15.7,14.34,23.92,21.08,3.75,3.08,5.86,8.59,7.54,13.08-4.58-1.67-9.18-3.32-13.77-4.95,2.28,1.94,4.58,3.89,7.19,5.37,2.72,1.55,5.71,2.56,8.47,4.03,2.92,1.55,6.76,4.65,8.62,7.39-.01-.02-3.57,1.09-4.02,1.12-1.79,.13-3.52-.36-5.26-.83-3.69-1-7.25-2.44-10.73-4.02-7.04-3.19-13.78-7.06-21.06-9.71,7.76,4.12,15.52,8.24,23.28,12.36,4.76,2.53,9.54,5.06,14.04,8.04,4.32,2.85,7.91,6.6,12.46,9.06,1.3,.71,2.66,1.35,4,2.01,2.75,1.37,5.43,2.83,7.42,5.12Z"/>
  <path class="cls-4" d="M624.25,299.15c-.6-2.31-1.36-3.78-2.38-5.84-.38-.77-1.87-7.12-2.22-7.2,5,1.16,6.99,4.88,10.09,8.38,2.97,3.36,7.53,5.68,9.71,9.7-3.93-7.24-10.11-12.95-15.71-19-1.76-1.9-1.63-3.51-2.33-5.82-.73-2.42-2.21-4.52-2.52-7.09-.4-3.33,1.21-6.57,1.43-9.92,.09-1.32-.58-6.15-1.54-6.93,3.6,2.93,8.69,2.85,13.24,3.83,7.7,1.65,14.23,6.57,20.49,11.35l-9.76-7.88c-3.77-3.04-7.89-6.22-12.72-6.46-1.1-.05-2.21,.05-3.31-.11-2.08-.31-3.88-1.55-5.57-2.79-5.39-3.98-8.9-8.91-10.72-15.54-.53-1.92-1.37-7.49-3.03-8.54,4.73,3,9.08,6.63,12.88,10.75-3.74-5.51-8.33-10.22-12.41-15.44-1.46-1.87-4.84-16.72-6.36-16.79,1.81,.09,2.81,2.03,3.91,3.47,1.41,1.86,3.43,3.15,5.32,4.53,3.83,2.78,7.29,6.03,10.73,9.27-6.48-6.75-12.95-13.51-19.43-20.26-2.07-2.16-2.5-6.74-3.35-9.58-1.08-3.63-2.15-7.28-2.89-11,12.15,19.14,30.63,33.63,49.88,47.08,8.71,6.1,17.82,11.69,27.09,17.03,6.33,3.65,11.57,9.1,18.05,12.29,6.19,3.05,13.05,5.52,20.17,7.63-1.25,.9-2.71,1.5-4.24,1.74,1.67-.26-2.62,4.31-2.81,4.45-1.17,.94-2.31,2.01-3.57,2.83-.8,.52-1.85,1.22-2.78,1.45-1.79,.45-.99,.21-2.66-.21-1.76-.44-3.82-.76-5.49-1.47-1.28-.55-2.32-1.52-3.32-2.48-7.27-6.94-14.26-14.17-20.96-21.67,8.02,10.24,16.08,20.54,25.73,29.25-2.03,.9-4.11,1.82-6.32,2.03-2.21,.21-4.63-.41-6.04-2.13-1.33-1.61-1.7-4.04-3.5-5.1,.84,1.95,1.21,4,1.91,5.99,0,.01,1.26,3.51,.52,2.87-3.38-2.93-6.52-6.25-10.1-8.8-1.82-1.3-4.11-3.52-4.85-5.66-.43-1.23-.66-2.55-1.38-3.63-.65-.98-1.65-1.66-2.62-2.32-6.8-4.63-13.61-9.27-20.41-13.9,.59,1.42,1.97,2.34,3.25,3.19,5.88,3.91,11.42,8.34,16.53,13.22,1.25,1.2,1.91,2.85,3.01,4.2,1.49,1.83,3,3.64,4.55,5.42,3.24,3.72,6.53,7.4,10.72,10.08,2.15,1.38,2.37,1.65,3.41,4.07,.27,.61,2.42,5.37,3.26,5.11-1.78,.55-3.62,.93-5.41,1.44-1.27,.37-2.59,1.25-3.87,1.42-1.52,.2-3.6-.55-5.05-.96-.59-.17-4.31-1.94-4.62-1.74-.58,.36-1.03,.9-1.29,1.53-3.74-3.18-8.12-5.34-11.25-9.16-3.59-4.37-7.57-8.41-11.89-12.06,1.71,2.87,3.87,5.43,6.03,7.97,3.04,3.58,6.21,7.08,9.15,10.75,1.02,1.28,1.93,2.62,2.75,4.04,.33,.56,1.45,3.88,1.89,3.94-2.3-.32-3.35-3.25-5.53-4.06,.46,.87,1.05,1.67,1.63,2.46,.99,1.35,2,2.72,3.36,3.71,.65,.47,1.36,.85,1.96,1.38,1.5,1.36,3.13,2.89,3.92,4.8,.65,1.59,.62,3.76,.71,5.47,.02,.47,0,.94-.03,1.42-.06,.99-.12,1.99-.18,2.98-1.75-1.43-3.66-2.06-5.57-3.08-2.18-1.17-4.22-3.26-6.04-4.92,2.51,2.67,5.01,5.36,7.51,8.04,.13,.14,.27,.3,.31,.49,.21,1.05-1.88,2.63-2.56,3.12-.54,.4-1.17,.81-1.37,1.46-.22,.74,.18,1.51,.58,2.18,1.67,2.85,3.34,5.69,5.01,8.54-6.12-3.63-12.23-7.26-18.35-10.88-3.61-2.15-7.32-4.37-9.82-7.74-3.1-4.19-3.98-9.65-6.83-14-1.33-2.03-3.11-3.86-3.73-6.21Z"/>
  <polygon class="cls-2" points="357.05 318.03 362.89 318.03 359.75 306.35 357.05 318.03"/>
  <polygon class="cls-2" points="447.66 356.9 444.93 346.79 443.82 351.6 441.76 343.91 438.91 356.23 442.76 356.23 440.89 364.33 449.66 364.33 449.6 364.13 452.79 364.13 449.13 350.53 447.66 356.9"/>
  <path class="cls-2" d="M1014.03,342.91c-.38-4.1-1.97-8.31-5.25-10.8-2.75-2.1-6.31-2.75-9.73-3.31-18.46-3.02-37.03-5.23-55.61-7.43-2.57-.3-5.13-.61-7.7-.91l-2.63-9.75-2.13,9.21c-.63-.07-1.26-.14-1.9-.21l-.2-.74-.16,.7c-1-.11-1.99-.22-2.99-.32l-1.34-4.99-.8,3.45-.93-3.47h1.64l-3.56-13.23-.76,3.29-.25-.92-.51,2.2-3.07-11.4-1.69,7.34-2.84-10.54-2.53,10.95-1.91-7.11-2.05,8.9-2.32-8.62-1.58,6.83-2.69-10-2.32,10.04-2.18-8.11-3.07,13.29-.96-3.57-.08,.34-.44-1.64-.59,2.54-4.56-16.95-4.53,19.62h.74l-.72,3.14-2.82-10.49-1.17,5.08-.11-.42-.66,2.84-3.02-11.22-1.85,8.03-3.25-12.05-2.39,10.34-.71-2.62-1.81,7.83-3-11.14-3.37,14.59-.51-1.91-2.21,9.57-3.26-12.1-2.2,9.54-1.14-4.23-.52,2.26-.25-.94-1.7,7.39-2.83-10.52-2.39,10.34-1.85-6.87-2.01,8.71-2.44-9.07-1.29,5.61-2.56-9.51-2.04,8.83-2.42-8.99-1.72,7.45-2.9-10.77-2.7,11.69-1.35-5.02-2.93,12.69h1.21l-.64,2.8-1.31-4.88-.42,1.81-1.98-7.34-1.45,6.28-.7-2.61-.37,1.62-2.14-7.97-.89,3.87-1.51-5.59-2.88,12.48-.89-3.3-1.16,5.03-.26-.96-1.5,6.52-1.15-4.28-.64,2.79-1.09-4.03-1.11,4.82-1.59-5.92h7.48l-4.22-15.69-1.9,8.22-2.63-9.76-2.52,10.93-1.55-5.75-3.3,14.28h7.14l-1.06-3.92h2.58l-.22,.97-.03-.12-2.69,11.66-.62-2.3-.58,2.51-1.15-4.27-1.19,5.15-4.69-17.43-2.08,9.03-2.74-10.18-2.41,10.43-1.92-7.12-2.44,10.57-1.52-5.63-1.53,6.63-3.3-12.26-1.99,8.63-.25-.92-.03,.12-2.58-9.59h4.75l-4.5-16.7-.63,2.73-4.76-17.69-4.37,18.92h.35l-.46,1.98-2.19-8.13-2.16,9.35-1.8-6.68-3.4,14.73h.95l-1.21,5.26h1.84l-2.38,10.3-1.73-6.42-3.89,16.85h.11l-.33,1.44-.27-.98-.1,.42-1.53-5.68-.06,.26-1.84-6.82h5.09l-3.15-11.71-2.7,11.71h.71l-2.27,9.83-2.3-8.54h1.85l-3.71-13.79-1.79,7.77-1.33-4.96-.6,2.61-.73-2.71-1.52,6.6-2.8-10.39-2.19,9.51-1.44-5.33-2.42,10.49-.68-2.53-2,8.69-2.59-9.63-1.63,7.07c-.08,0-.16,0-.25,0l-4.35-16.14-4.31,18.67h.73c-.74,.34-1.38,.94-1.73,1.61l-2.05-7.61-.6,2.6-3.93-14.61-2.21,9.56-1.71-6.37-1.74,7.56-3.54-13.16-3.91,16.93h.24l-1.98,8.58-1.36-5.06-1.39,6.01-.05-.18-.95,4.11-2.04-7.57-1.95,8.45-1.84-6.83-.8,3.46-.23-.85-2.43,10.53-.34-1.27-.08,.36-2.56-9.51-1.9,8.22-1.75-6.51-3.21,13.9h.66l-.04,.17c-.8,.46-1.64,.95-2.5,1.48l-2.74-10.17-.2,.88-1.05-3.92-1.48,6.41-1.79-6.64-2.39,10.34-1.54-5.72-.46,1.98-.3-1.12-1.07,4.65-3.64-13.54-2.35,10.17-1.31-4.88-2.32,10.03-2.09-7.76-1.43,6.2-3.77-13.99-2.17,9.4-1.74-6.47-3.22,13.95-.48-1.79-.85,3.67c-1.94,.34-3.07,1.76-3.23,3.3l-.02-.06-1.98,8.57-2.42-8.99-1.43,6.2-3.31-12.31-4.06,17.6h3.53c-.96,.94-.97,2.51-.26,3.69l-.54,2.36c-1.09,.14-2.19,.26-3.28,.38l-.71-2.65-.65,2.8c-.22,.02-.44,.05-.66,.07l-2.6-9.67-2.32,10.05c-1.48,.09-2.96,.15-4.45,.2-1.74,.05-3.56,.13-5.41,.19l-1.47-5.46-1.21,5.25-3.5-13-1.96,8.49-2.5-9.27-1.51,6.56-3.19-11.85-1.54,6.66-3.11-11.55-2.32,10.05-1.91-7.08-2.3,9.96-1.02-3.77-1.35,5.84c-.61-.78-1.42-1.43-2.36-1.83-1.05-.44-2.18-.63-3.34-.7l-1.67-6.19-1.35,5.83-3.6-13.39-3.19,13.82c-.2,0-.4,0-.61,0l-.07-.27-.06,.27c-.18,0-.37,0-.55,0l-1.38-5.11-.54,2.33-2.53-9.41-2.96,12.83c-.37,.31-.66,.71-.87,1.14l-2.01-7.47-.28,1.21-2.89-10.72-2.09,9.07-3.73-13.87-1.89,8.18-2.46-9.13-2.8,12.13-.81-3-.93,4.03-2.01-7.48-2,8.66-1.71-6.34h2.51l-3.82-14.17-2.24,9.69-2.82-10.49-1.05,4.54-1.51-5.61c3.14,0,6.28-.31,9.38-1.01-3.45-.9-6.83-2.01-10.15-3.3h2.56l-4.33-16.09h6.38l-5.21-19.36-2.29,9.91-2.33-8.65-3.76,16.28h4.32l-.42,1.82h1.58l-3.05,13.23c-2.19-1.06-4.34-2.21-6.44-3.44h3.53l-5.06-18.79-.06,.25-2.01-7.46-1.62,7.01-.84-3.12h1.2l-4.98-18.51-3.11,13.48-1.76-6.54-.28,1.21-1.61-5.97h3.69l-5.12-19-.98,4.24-2.41-8.95-2.48,10.73-1.93-7.18-.2,.88-2.53-9.4-3.62,15.68h.5c.34,1.36,.68,2.71,1.02,4.06l-.79,3.44-.29-1.09-1.76,7.64-2.48-9.22-2.48,10.77-2.5-9.28-3,13-.9-3.34-.45,1.95-2.24-8.33-.43,1.86-.35-1.28-.37,1.6-1.13-4.2h4.38l-3.79-14.07-2.34,10.14-3.14-11.66-2.5,10.84-1.05-3.89h1.05l-4.95-18.39-1.4,6.06-4.03-14.98-2.65,11.47-.77-2.84-1.82,7.87-3.27-12.13-2.85,12.34-1.28-4.74-1.53,6.63-.09-.35-.59,2.54-1.92-7.15-.26,1.11-.38-1.4-2.22,9.63-2.66-9.89-2.39,10.35-.1-.36h.14l-4.53-16.83-.79,3.41-.47-1.76-3.73,16.16-2.26-8.4-1.64,7.11-1.24-4.62-2.03,8.81-2.37-8.81-.41,1.77-1.43-5.31-1.61,6.98-3.01-11.19-.21,.93-3.9-14.47-2.09,9.05-2.49-9.26-3.21,13.92-1.65-6.15-1.81,7.86-2.61-9.7-.46,2.01-2.59-9.63h2.98l-3.79-14.09-2.19,9.48-1.2-4.48-2.12,9.17-1.01-3.77-1.65,7.15-5.17-19.19-2.15,9.33-1.66-6.18-2.12,9.19-2.22-8.24-4.59,19.88h.86l-.56,2.43-.69-2.55-1.19,5.16-2.94-10.93-1.61,7-2.49-9.25-.15,.65-.23-.87h2.47l-.48,2.06h8.38l-4.51-16.76-1.61,6.98-3.05-11.31-2.92,12.65-.94-3.48-2.73,11.82-2.51-9.34-1.92,8.31-3.3-12.27-.88,3.8-4.37-16.22-3.84,16.64h4.09l-1.86,8.07h4.02l-1.11,4.8h2.73l-2.01,8.72-1.26-4.67-2.04,8.82-2.18-8.1-1.85,8.03-2.56-9.52-2.89,12.52-1.98-7.36-2.54,11.02-1.51-5.62-.48,2.08-.25-.94-.21,.89-3.6-13.36-2.4,10.39-2.02-7.51-3.68,15.93h.59l-1.96,8.49-2.05-7.61-3.46,14.99h3.8l-.71,3.07h2.79l-.84,3.65h2.01l-.07,.29h4.81l-1.27,5.5c-.27-.11-.54-.23-.81-.34l-1.37-5.1-.96,4.16c-.62-.24-1.23-.49-1.86-.72-.06-.02-.11-.04-.17-.06l-1.28-4.77-.92,3.99c-.4-.13-.8-.26-1.21-.39l-.79-2.95h.39l-3.5-13-1.45,6.27-2.91-10.82-1.94,8.4-2.05-7.62-1.49,6.45-2.78-10.34-1.25,5.42-2.54-9.42-1.16,5.01-2.81-10.43-.2,.88-1.34-4.99-2.92,12.64-1.34-4.99-.45,1.95-3.99-14.81-1.83,7.95-2.59-9.62-3.24,14.05-3.26-12.1-2.28,9.89-.11-.4-.29,1.26-1.65-6.12-.45,1.94-1.89-7-1.42,6.14-.68-2.52-.94,4.09-3.6-13.37-2.69,11.66-1.59-5.9-1.34,5.83-3.23-12.01-3.31,14.36-.85-3.17-1.33,5.78-3.18-11.83-1.8,7.81-.58-2.15-.28,1.22-1.71-6.36-2.49,10.81-.99-3.69-.55,2.38-1.45-5.39-1.47,6.38-.69-2.54-2.45,10.63-.24-.9-1.33,5.74c-.24-.04-.49-.08-.74-.12l-1.84-6.83h4.54l-3.53-13.11-2.31,10-.65-2.4-.26,1.11-2.26-8.4-.7,3.02-.25-.93-.87,3.77-.53-1.96-1.33,5.75-.86-3.19-.14,.59-.75-2.8-.39,1.68-2.29-8.52-1.96,8.49-2.72-10.08-3.81,16.51h.22l-.34,1.46-1.9-7.06-.33,1.45-1.75-6.49-2.15,9.33-.21-.78-.09,.4-4.16-15.44-3.11,13.49-.26-.98-.74,3.19-.97-3.62-1.33,5.78-1.32-4.91-1.91,8.26-3.47-12.88-2.04,8.85-1.35-5-2.06,8.94-2.63-9.77-2.28,9.9-2.44-9.07-1.75,7.58-3.72-13.82-2.19,9.48-1.32-4.92-2.23,9.67-1.02-3.8-1.56,6.75c-13.19,1.18-26.36,2.82-39.46,4.47-5.73,.72-11.57,1.47-16.82,3.9-7.93,3.67-13.93,11.23-15.72,19.77-.95,4.53-.73,9.37,1.07,13.63,3.08,7.29,10.24,11.95,17.3,15.53,44.58,22.58,97.18,18.83,146.99,22.75,31.52,2.48,62.84,8.24,94.46,8.05,23.73-.14,47.45-3.65,71.12-1.97,15.43,1.1,31.92,4.17,46.05-1.13,4,1.35,8.37,2.34,10.52,2.94,19.83,5.54,40.56,6.72,61.01,7.87,1.36,.08,2.73,.15,4.09,.23l-2.8,12.13h7.8l-.67-2.49h4.25l-1.29,5.57h7.63l-1.07-3.97h2.06l-.3,1.3h.65l-.38,1.65h3.21l-.16,.7h8.38l-.27-1h1.6l-2.35-8.74h.12v.05s5.41,0,5.41,0l-.79,3.41-.45-1.67-2.8,12.12h.89l-.17,.72h8.72l-.33-1.24h3.66l-1.12,4.83h9.26l-1.13-4.21h1.68l-.24,1.05h8.86l-.17,.76h5.14l-1.27,5.49h8.3l-2.6-9.67h2.5l-1.71-6.35h.2c.5,.05,1.01,.1,1.52,.15l-.73,3.16h6.77l-.34-1.27h5.44l-.4-1.48h.41l-.14,.62h3.06l-.33,1.41h4.92l-.24,1.02h6.59l-2.27,9.83h3.8l-.02,.09h9.41l-.86-3.2h5.07l-.13-.49h.32l-.26,1.14h5.93l-.11,.49h4.69l-.81,3.51h6.64l-2.88-10.71c2.06-.06,4.11-.16,6.16-.3l-1.97,8.55h4.52l-.23,.99h10.03l-.35-1.3h1.32l-.23-.87h5.95l-.28-1.02h1.31l-1.17-4.34h3.02l-.58-2.14h1.33l-3.94,17.05h9.93l-1.34-4.99h2.44l-2.4-8.92h1.31l-.15,.65h1.01l-.88,3.8h4.28l-.03,.14h6.4l-1.79,7.76h10.01l-.3-1.11h3.64l-.15,.67h4.74l-.4,1.72h9.99l-1.62-6.03h1.76l-.05,.2h2.13l-.36,1.55h7.76l-.56-2.09h1.13l-.24-.89h2.18l-.07-.25h8.58l-.38,1.66h10.03l-1.24-4.59h3.23l-.04,.19h9.87l-.99-3.68h4.22l-.06-.21h6.76l-1.2-4.46h.18l-.27-.99h2.18l-.66,2.87h7.39l-.7-2.59h4.79l-.15,.65h9.86l-.78-2.91c39.08-3.04,77.58-14.55,114.54-28.23,8.86-3.28,18.34-6.75,27.55-4.58,1.66-1.86,6.3,1.97,7.37,4.21,1.07,2.25,.66,4.88,.48,7.36-.18,2.48,.03,5.3,1.91,6.94,1.1,.95,2.57,1.31,3.98,1.64,33.06,7.7,67.96,12.54,100.69,3.55,9.04-2.48,18-6.12,24.98-12.38,6.98-6.26,11.77-15.49,10.91-24.83Zm-216.65-2.71h.4c-.13,.03-.25,.07-.38,.1l-.03-.1Zm106.36-26.14l-.8,3.47s-.08,0-.12,0l-.42-1.58-.15,.64-.68-2.52h2.17Zm11.7-4.28h0s-1.08,4.65-1.08,4.65l-1.28-4.75h2.38l-.02,.1Zm-5.35,5.84l-.95-3.52h1.76l-.81,3.52Zm-9.13-3.85l-.15-.56h.28l-.13,.56Zm-4.54,1.42l-1.02-3.78h1.89l-.87,3.78Zm-25.55,5.05c-.74,.08-1.48,.18-2.22,.27l-.28-1.04h.13l-.44-1.62h3.36l-.55,2.39Zm-37.79,7.81l-.09-.34h.17l-.08,.34Zm-7.95,5.92l-.8-2.96h1.48l-.68,2.96Zm-33.44,8.9l-.35-1.28h.64l-.3,1.28Zm-11,3.75l-.96-3.56h3.24l-.74,3.2c-.51,.12-1.03,.24-1.54,.36Zm-5.87-3.03h.53l-.24,1.05-.28-1.05Zm31.03-4.17h1.74c-.54,.15-1.08,.31-1.62,.46l-.12-.46Zm112.23-26.69l-1.19-4.4h2.2l-1.02,4.4Zm-1.83-4.4l-.23,.99-.27-.99h.5Zm-4.77,3.35l-.14,.59-.16-.59h.29Zm-11.56-1.85l-.63-2.36h1.18l-.54,2.36Zm-1.41-2.36l-.54,2.36-.16-.59-.07,.32-.56-2.09h1.34Zm-6.11,3.93l-.38,1.64-.44-1.64h.82Zm-5.2,3.01l-1.3-4.83h2.41l-1.11,4.83Zm-1.5-4.83l-.66,2.87-.37-1.38-.37,1.62-.84-3.11h2.24Zm-6.53,6.09l-.49,2.13-.57-2.13h1.07Zm-26.76,7.95c-.28,.08-.55,.16-.83,.24l-.11-.4h.97l-.04,.16Zm-2.49-.16l-.22,.95c-.19,.06-.38,.11-.57,.17l-.3-1.11h1.09Zm-25.71,7.02l-.46-1.72h.86l-.4,1.72Zm-5.47-3.16h1.7l-.33,1.44h2.08l-.75,3.24-.49-1.84-.86,3.71-1.12-4.14-1.45,6.29-2.26-8.39h3.56l-.08-.31Zm-56.35,17.56l-.66,2.88h1.83l-.53,2.31c-.42,.06-.84,.12-1.27,.18l-.49-1.83-.45,1.97c-.66,.09-1.32,.17-1.98,.25l-1.54-5.71h4.75l-.02-.06h.36Zm-142.7,40.71l-.14,.62-.13-.48c.09-.05,.18-.09,.27-.14Zm117.27-33.43c-.32,0-.64,0-.95,0l-.25-.93h1.42l-.22,.93Zm-2.8-.02c-.14,0-.28-.01-.42-.01l-.24-.9h.88l-.21,.92Zm17.61-13.52v.05s-.03-.06-.03-.06c0,0,.02,0,.03,.01Zm-6.22-4.5c.23,.37,.47,.71,.74,1.02l-.62,2.71-.94-3.5c.28-.06,.56-.14,.83-.23Zm-12.24,16.42l-.78-2.91h1.46l-.67,2.91Zm20.88-10.52l-.43-1.59c.22-.21,.39-.46,.45-.73,.12-.51,.19-1.01,.23-1.5,.13-.08,.24-.18,.37-.26h.32l-.94,4.08Zm-34.45,10.86c-.86-.14-1.71-.29-2.56-.46l-.57-2.11h2.46l-.09,.38h1.26l-.5,2.19Zm-39.2-2.33l-1.18-4.38h2.19l-1.01,4.38Zm-4.83-1.3l-.83-3.08h1.54l-.71,3.08Zm-80.97,47.83c.34-.05,.67-.1,1.01-.14h.02l-.49,2.13-.53-1.98Zm13.65-3.32l-.34,1.47-.21-.79c.23-.2,.41-.43,.55-.68Zm.55-1.38c.26-.1,.52-.2,.79-.3l-.27,1.17h.47l-.35,1.5-.64-2.37Zm146.46-80.17l-2.94,12.74h1.83l-.7,3.05c-.31-.16-.63-.3-.96-.42l-2.04-7.57h1.99l-2.1-7.8h4.93Zm-6.64,7.8l-.43,1.88c-.55-.51-1.29-.77-2.06-.8l-.02-.09h2.05l-.27-.99h.74Zm-8.54,8.71l-.51,2.2h1.62c-.17,.33-.35,.66-.56,.99-1.21,1.95,.06,3.82,1.84,4.39l-.95,4.11-3.15-11.69h1.7Zm-18.61,10.65l-.83,3.58-.96-3.58h1.79Zm-37.21,8.2l-1.36-5.04h2.52l-1.16,5.04Zm-1.99-5.04l-.61,2.63-.71-2.63h1.31Zm-7.86,2.31l-.82-3.03h1.51l-.7,3.03Zm-1.69-3.03l-1.77,7.65-2.06-7.65h3.83Zm-3.99,13.81c-.16,.1-.31,.22-.44,.36l-.1-.36h.54Zm-40.52,13.85l-.36-1.36h.68l-.31,1.36Zm-3.46-1.36l-.12,.5-.13-.5h.25Zm-22.66,9.63l-.34,1.49-.65-2.43c.26,.35,.59,.67,1,.94Zm-10.71,12.24c.21,.15,.45,.28,.7,.37,.03,.01,.06,.02,.09,.03l-.14,.59h.62c-.32,.05-.65,.09-.97,.13l-.3-1.12Zm-39.02-7.37l-.7,3.04h5.92l-1.52,6.57c-.06,0-.12-.02-.18-.03l-.88-3.27-.69,2.98c-1.18-.24-2.34-.53-3.46-.91l-2.26-8.39h3.75Zm-89.52,2l-.11-.43c.07,0,.14,0,.21,0l-.1,.42Zm13.58,.65l-.23-.84c.14,0,.28,0,.42,0l-.2,.85Zm1.45-.87c.16,0,.31,0,.47,0l-.22,.94-.25-.94Zm14.71,5.61h1.18l-.55,2.36-.64-2.36Zm12.24-10.5l-.03-.1-.41,1.79-1.05-3.92h2.01l-.51,2.23Zm-15.37,6.15l-.51-1.88c.32-.03,.64-.06,.96-.1l-.46,1.97Zm-3.84-14.24h2.63l-1.21,5.26-1.42-5.26Zm9.23,27h1.01l-.47,2.02-.54-2.02Zm16.82-13.44l-.17,.72c-.52-.06-1.04-.12-1.56-.18l-.14-.54h1.87Zm-3.75-6.98l-.19-.71h.36l-.16,.71Zm-7.82-1.49l-.56,2.43-.65-2.43h1.21Zm-10.12,6.69c-.41-.06-.83-.13-1.24-.2l-.16-.59h1.58l-.18,.79Zm-.98-15.05l-.48,2.1-.57-2.1h1.05Zm-97.46-19.59h.8l-.37,1.59-.43-1.59Zm36.08,18.46c-.13-.07-.26-.14-.38-.21l-.06-.24h.55l-.1,.44Zm-44.87-9.02h1.22c-.37,.14-.73,.29-1.1,.44l-.12-.44Zm-102.66-33.49l-.47-1.74h2.04l-.46,1.99c-.37-.08-.75-.16-1.12-.25Zm-96.81-27.47l-.15-.55h.3l-.32-1.17h1.95l-1.63-6.06h3.95l-1.37,5.93-.41-1.52-.86,3.72c-.49-.12-.98-.23-1.47-.35Zm-7.17-1.72h1.72l-.09,.39c-.54-.13-1.09-.26-1.63-.39Zm-4.12-6.09h.14l-.07,.29-.08-.29Zm-.13-.5l-.68-2.54-1.18,5.13-1.87-6.95h4.74l-1.01,4.36Zm.34,1.28h5.06l-1.22,5.3c-.86-.21-1.72-.41-2.58-.62l-1.26-4.68Zm17.89-4.12l-.24-.88h.44l-.2,.88Zm-2.14-.88h.43l-.27,1.18-.12-.46h.16l-.19-.71Zm-1.39,12.18h3.31l-.31,1.33c-.94-.21-1.88-.43-2.82-.65l-.18-.68Zm-7.64-14.33l-1.17-4.34h2.17l-1,4.34Zm-5.53-.73l-.59-2.18h1.09l-.5,2.18Zm34.17,9.49h1.54l-.71,3.07-.83-3.07Zm-.79,10.08l-.41-1.51h.76l-.35,1.51Zm152.42-5.16c-.48-.05-.96-.09-1.44-.14l-.13-.5h1.72l-.15,.64Zm-2.03-.19c-.16-.01-.31-.03-.47-.04-.19-.01-.38-.02-.56-.03l-.1-.36h1.23l-.1,.44Zm-31.08,15.4h1.36l-.63,2.73-.73-2.73Zm-24.06,2.94l-1.52,6.57-1.56-5.81h1.48l-1.35-5.03h.85l-.21,.93h1.73l-.77,3.34h1.36Zm-42.19,2.2l-.2-.74h1.7l-.3,1.28c-.4-.18-.8-.36-1.21-.55Zm88.26-21.75h0s-.07-.25-.07-.25l-.32,1.41c-1.2,.09-2.4,.21-3.59,.37l-1.44-5.36c.26-.38,.51-.77,.76-1.17l-.47,2.03h1.63l-.3,1.31h4.63l-.59,2.54-.23-.87Zm-85.74,16.59l-.68-2.54h1.27l-.59,2.54Zm45.13-25.33l-.17,.75c-.48-.14-.96-.28-1.45-.41,.09-.11,.17-.22,.26-.33h1.36Zm-37.76,15.38h.03v.05s-.03-.05-.03-.05Zm5.94,1.76l-.65,2.82-.76-2.82h1.41Zm-.39,3.78h.03l-.02,.07-.02-.07Zm13.65,5.84l-.95,4.13-1.11-4.13h2.06Zm1.31-1.53l-.36-1.33h.66l-.31,1.33Zm28.75-1.88l-.47,2.04-.55-2.04h1.02Zm8.34-22.61c-.21,.84-.32,1.68-.37,2.52l-.49,2.12-.26-.98-.61,2.65-.98-3.65h1.35l-1.38-5.14h2.63c-.03,.84,0,1.67,.11,2.48Zm-68.66,24.64l-.7-2.58h1.29l-.6,2.58Zm7.57-4.05l-.02,.11-.03-.11h.05Zm12.3,8.2l-.34,1.46-.39-1.46h.73Zm11.8,9.87l-.03,.12-.03-.12h.06Zm3.8-10.35h3.44l-1.59,6.88-1.85-6.88Zm-1.73-1.91l-.87-3.24h1.51l-.03,.12h.11l-.72,3.12Zm7.48-7.07h.27c.22,.04,.44,.08,.66,.11l-.49,2.14-.18-.67h.17l-.43-1.58Zm20.42-31.31l-.66-2.44h1.22l-.56,2.44Zm-50.85,39.53h1.47l-.68,2.95-.79-2.95Zm7.45,1.01l-.24,1.04-.28-1.04h.52Zm54.98-5.81s.09,0,.14,0l-.06,.27-.08-.28Zm-7.56-38.27l-.19-.72h.36l-.17,.72Zm-2.98,1.02l-.25-.93-.05,.21-.27-1.02h.98l-.4,1.74Zm-3.81,.08l-.61,2.66-.23-.86-.33,1.41-.86-3.2h2.03Zm-2.7-2.46l-.67-2.47-.03,.11-.95-3.55h3.01l-1.36,5.9Zm-20.7,12.85c-.11,.46-.21,.93-.3,1.39-.22-.03-.45-.05-.67-.08l-.35-1.31h1.33Zm-12.14-8.82l-.83-3.09h1.55l-.71,3.09Zm-10.71,47.2h4.29l-.38,1.63c-1.29-.42-2.57-.85-3.83-1.33l-.08-.3Zm39.28-1.75l-1.4,6.08-2.75-10.23-1.82,7.88-2.36-8.78h3.48l-.04,.18h3.13l-.18,.77h1.76l-.94,4.06h2.28l-.54,2.36-.62-2.31Zm13.57-2.12l-.18,.79-.21-.79h.4Zm1.08,14.55c-.78-.16-1.57-.32-2.35-.49h2.46l-.11,.49Zm9.53-1.38h1.98l-.82,3.54c-.07-.01-.15-.03-.22-.04l-.94-3.5Zm5.48,4.35c-.3-.05-.6-.11-.91-.17l-1.13-4.19h3.04l-1,4.35Zm2.46-2.17l-.59-2.19h.05l-.54-2.01h2.04l-.97,4.2Zm-4.75-17.86l-3.42,14.81-2.22-8.26-1.26,5.46-2.51-9.32-1.72,7.45-2.06-7.65h2.93l-.83-3.09h6.29l-.11-.4h5.21l-.26-.95h1.42l-.77,3.35h1.32l-.43,1.86h1.14l-.84,3.66-1.87-6.93Zm82.89-.65l-.27-1h.5l-.23,1Zm-38.1-21.25l-1.42-5.29h2.64l-1.22,5.29Zm30.54,13.25l-.57-2.13h1.07l-.49,2.13Zm2.44-5.63h.07l-.03,.13-.04-.13Zm-13.54-11.83h.07l-.03,.15-.04-.15Zm-19.55,4.68l-.41,1.78c-.69,.23-1.38,.45-2.07,.66l-.66-2.44h3.13Zm-10.25,3.86c-.96,.04-1.92,.03-2.89,0h2.89Zm-4.31-.06c-.25-.02-.49-.04-.74-.06l-.08-.31h.91l-.09,.37Zm-2.86-.26c-.35-.04-.69-.08-1.04-.11h1.06l-.03,.11Zm7.96,13.2h.46c1.09,.16,2.16,.38,3.17,.7l-.74,3.19c-1.2-.32-2.4-.62-3.61-.89h1.53l-.81-2.99Zm39.25,8.66h2.47l-.69-2.55h2.39l-.59,2.58h3.79l-.09,.41c-2.48-.08-4.91-.21-7.27-.43Zm30.44-3.98h.95l-.49,2.11c-.19-.14-.38-.28-.57-.41,.19-.52,.23-1.11,.11-1.69Zm2.75-7.83l-.58-2.14h1.07l-.49,2.14Zm14.62,12.1l-1.63,7.05-1.9-7.05h3.52Zm-12.72-16.07l-.07-.25h.12l-.06,.25Zm-19.41,7.08l-.27,1.19h.22l-.24,1.04c-.31,.08-.62,.16-.92,.25-.77,.23-1.42,.79-1.85,1.47l-1.06-3.94h4.13Zm-21.43-20.09l-.35-1.3h.65l-.3,1.3Zm-4.28-6.23c-.08-1.04-.62-2.09-1.34-2.78,0,0,0,0,0,0h1.99l-.64,2.79Zm-8.53-1.66l-.07-.27h.13l-.06,.27Zm-3.64-.27l-.23,.98-.26-.98h.49Zm-19.75,4.95l-1.93,8.36-2.25-8.36h4.18Zm-21.25-12.02l-1.26,5.47-.35-1.31-.22,.97c-.21-.87-.78-1.57-1.54-2.06l-.14-.5h.71l-.69-2.57h3.49Zm-20.8,4.36s-.04,.09-.06,.13l-1.57-5.83h2.95l-1.32,5.7Zm-.61-22.81l-.33,1.41-.38-1.41h.71Zm-1.36,5.87l-1.09,4.71-1.27-4.71h2.35Zm-7.5,1.57l-.87-3.23h1.61l-.75,3.23Zm-1.92-3.23l-.75,3.23-.87-3.23h1.62Zm-5.13,4.03l-.14-.52h.89l-2.18,9.43c-.12,0-.24-.01-.37,0-.07,0-.14,.02-.21,.02l-1.52-5.64-.85,3.69-1.88-6.99h6.26Zm-16.11,10.47l-1.53,6.62-1.77-6.58h1.02l-1.49-5.52h2.9l-1.27,5.48h2.13Zm-4.69-8.94l-.61-2.27h1.13l-.52,2.27Zm-12.8-17.02h.56l-.26,1.12-.3-1.12Zm6.13,12.87l-.21-.79h2.66l-.62,2.68h.79l-.95,4.11-1.34-4.98-.96,4.15-.11-.4-.33,1.43-1.67-6.19h2.74Zm-5.65,8.94l-.98,4.24-1.14-4.24h2.12Zm-13.77,10.44l-.1,.44-.12-.44h.22Zm-9.71,3.21l-.94,4.09h.47l-.57,2.48h.37l-.59,2.57-2.46-9.14h3.73Zm-6.39-1.27l-.29,1.27h2.9l-.51,2.22-.05-.19-.4,1.73-.63-2.34-1.32,5.72-2.27-8.42h2.58Zm-11.71,22.21l-.24,1.05-.28-1.05h.53Zm-8.96-3.75l-.07-.24h.64l-.88,3.82c-2.51-.51-5.03-.96-7.56-1.38l-.08-.29-.06,.27c-.72-.12-1.43-.24-2.15-.35l-1.46-5.42-1.15,5c-.64-.1-1.28-.2-1.92-.31l-3.04-11.3h1.7l-.62,2.68h5.22l-.55,2.37h4.71l-1.19,5.17h8.46Zm-20.82-11.05l-.9-3.35h.52l-1.57-5.81h4.07l-2.12,9.17Zm-5.85-9.69l-1.46,6.34h5.51l-1.2,5.19-.72-2.69-2.51,10.86c-1.12-.22-2.23-.44-3.35-.67l-.25-.94h3.76l-1.08-4.02h1.75l-3.56-13.22h.48l-.23-.84h2.86Zm-6.22,.84l-.63,2.72-.73-2.72h1.36Zm-13.65-4.91l-.68,2.94-.78-2.89-.05,.2-.07-.25h1.57Zm-15.35,3.18l-.65,2.8h.69l-2.15,9.32c-.12-.03-.23-.05-.35-.08l-1.36-5.04-1.04,4.51c-.08-.02-.17-.04-.25-.06l-2.15-7.98h5.93l-.93-3.47h2.26Zm-6.72-1.18l-.82,3.57-.61-2.25-.04,.16-.4-1.48h1.87Zm-26.28,3.49l-.33,1.45-.39-1.45h.72Zm-4.08-.8l-.04-.14h.07l-.03,.14Zm-12.03,.18l-.23-.86-1.14,4.93s-.07,0-.1,0l-1.44-5.35h3.21l-.3,1.29Zm-5.84-1.29l-.11,.48-.13-.48h.24Zm-8.34,5.3c-.91,.02-1.82,.04-2.74,.06l-.02-.06h2.75Zm-17.49-.38l-.26,1.14c-1.15,.08-2.29,.16-3.44,.24l-.37-1.38h4.07Zm227.7,44.01l-2.04-7.57h1.9l-.26,1.14h8.76l-.6-2.24h2.32l-2.36,10.23c-2.57-.53-5.15-1.05-7.72-1.56Zm121.85,40.29h.43l-.52-1.93h3.86l-3.42-12.72-1.78,7.73-2.75-10.22-.89,3.84-2.62-9.75-2.53,10.97-2.3-8.55-2.01,8.73-2.13-7.91-.35,1.52-2.82-10.47-1.57,6.8-1.76-6.54-.91,3.93-.63-2.33-1.74,7.53c-.27-.15-.56-.29-.85-.42l-.83-3.07-.41,1.77-.81-3.02-.85,3.7c-.36,0-.72,0-1.07,.04l-2.08-7.74-.16,.69-2.4-8.93-2.09,9.07-2.71-10.05-3.27,14.19-2.07-7.69-2.19,9.49-2.41-8.94-3.04,13.17-1.94-7.19-1.65,7.13c-.43-.39-.86-.77-1.3-1.14l-.33-1.22h.23l-4.43-16.46-1.75,7.6-2.59-9.62-2.72,11.8c-3.29-2.03-6.66-3.92-10.28-5.27-1.28-.48-2.58-.88-3.9-1.23l-1.7-6.3h5.42l-3.37-12.51-2.5,10.83-.15-.55h.02l-2.8-10.39h.37l-.5-1.86h2.18l-.84-3.13h2.25l-1.15,4.98h7.88l-2.15-7.98c2.83-.02,5.66-.06,8.48-.14l-.57,2.46h5.44l-.17,.73h2.23c-.32,.45-.32,1.09,.31,1.45,3.41,1.96,7.02,3.75,10.75,5.37-.24-.04-.47-.09-.71-.13-1.28-.22-1.79,1.52-.54,1.96,1.26,.44,2.53,.87,3.79,1.3l-1.05,4.53h9.23l-.53-1.98c4.3,1.39,8.62,2.71,12.96,3.98,7.59,2.21,15.36,5.52,23.26,6.24,1,.09,1.49-.9,1.32-1.73,8.22,3.27,16.17,7.34,24.34,10.76,.98,.41,1.98,.81,2.97,1.2l-3.48,15.06h7.56l-4.05-15.05c7.84,3.07,16.12,5.39,24.39,5.68l-3.81,16.51h4.57l-.66,2.84h5.15l-.91,3.93-.4-1.5-1.49,6.48-1.49-5.53-1.29,5.6c-1.55-.55-3.1-1.13-4.64-1.74l-2.48-9.23-1.74,7.54c-1.63-.65-3.26-1.3-4.89-1.92l-.24-.91-.17,.75c-4.75-1.78-9.57-3.27-14.6-3.78-5.13-.52-10.43-.03-15.43-1.11Zm21.1,13.88c.75,.04,1.49,.08,2.24,.11l-1.02,4.41-1.22-4.53Zm14.55,3.84h1.28l-.59,2.56-.69-2.56Zm29.15,7.4h.98l-.17-.64c.21,.07,.42,.14,.65,.22l-.73,3.14-.73-2.71Zm10.71,.65h3.59l-1.65,7.17-1.93-7.17Zm41.06-.33c.53,.33,1.09,.62,1.67,.88l-.66,2.88-1.01-3.75Zm19.77,3.12c.09,0,.18,0,.27,0l-.12,.53-.14-.54Zm3.83,4.85l-1.31-4.86c.81,0,1.62,0,2.44-.02l-1.13,4.88Zm13.03-5.59s.1,0,.15-.01l-.07,.31-.08-.29Zm35.07,5.19h.42l-.19,.84-.23-.84Zm5.48,1.15h.98l-.45,1.96-.53-1.96Zm5.97-.92h.82l-.3,1.29h1.2l-.63,2.75-1.09-4.04Zm34.3,.95h1.12l-.52,2.24-.6-2.24Zm32.84-10.18s.09,0,.13,0l-.06,.27-.07-.27Zm5.47-.07c.25,0,.49-.01,.74-.02l-.34,1.49-.4-1.47Z"/>
  <polygon class="cls-2" points="569.56 383.5 575.56 383.5 572.33 371.48 570.69 378.59 567.72 367.57 564.94 379.6 570.46 379.6 569.56 383.5"/>
  <path class="cls-3" d="M478.64,225.93c-3.12,2.39-6.81,4.38-10.12,6.52-.82,.53-1.67,1.33-1.52,2.29,.05,.33,.22,.62,.39,.91,1.83,3.08,4.01,5.96,6.48,8.56-1.2-.61-2.14-1.62-3.06-2.61-1.54-1.66-3.09-3.32-4.63-4.99-.11-.12-.23-.25-.39-.32-.36-.15-.78,.09-.97,.43-.62,1.11-.95,3.28-1.3,4.57-.48,1.77-1.2,3.45-1.72,5.24-.06,.2-.12,.41-.09,.62,.04,.29,.23,.54,.41,.77,.78,1.04,1.4,2.2,1.82,3.42,.25,.73,.54,1.6,1.28,1.83-1.34-1.38-2.71-2.72-4.12-4.02-.18-.16-.37-.33-.6-.41-1.45-.48-4.62,1.64-5.91,2.17-1.44,.59-3.01,1.17-4.56,1.41-.9,.14-2.19-.16-2.82,.69-.42,.58-.23,1.39,.09,2.03,.88,1.74,2.55,2.99,3.32,4.78,.2,.47,.54,1.09,1.04,.94-2.24-1.81-4.24-3.92-5.94-6.25-.11-.16-.23-.32-.41-.41-.17-.09-.37-.09-.57-.09-.12,0-7.04,.8-5.73,2.12,.79,.79,1.33,1.82,1.53,2.92,3.78,4.34,10.33,5.43,14.12,9.76,3.19,3.65,6.82,8.76,8.08,13.49l-4.26-5.05c-.78,3.6,.38,4.63,2.55,7.51,1.99,2.65,3.99,5.3,5.98,7.96,.51,.68,1.03,1.37,1.73,1.87,.7,.5,1.52,.77,2.34,1.03,1.96,.6,3.94,1.13,5.94,1.57-.76-3.43-1.43-6.88-2-10.34,.19,.75,3.8-1.66,4.15-1.84-.51-1.77-2.89-2.16-4.47-2.33,.31-2.89-1.13-5.65-2.53-8.2-2.64-4.8-5.33-9.68-9.31-13.45,4.98,2.83,7.46,8.58,11.59,12.56,1.27,1.22,2.7,2.29,3.79,3.67,1.13,1.43,1.93,3.22,3.51,4.12,1.74,.99,6.44,.68,8.09-.57,2.6-1.98-.34-5.38-2.07-6.63-2.36-1.71-4.34-3.91-6.42-5.97,1.09,.48,2.18,.97,3.33,1.26,1.8,.46,.72-3.91,.68-5.13-.11-3.14,.14-6.33-.87-9.36-1.1-3.29-1.07-4.09,.8-7.02,.29-.45,.58-.92,.64-1.45,.09-.81-.4-1.57-.84-2.25-1.74-2.69-3.21-5.56-4.37-8.55,1.56,1.82,3.67,3.15,5.98,3.77-.36-.3-.33-.96,.07-1.23,.28-.19,.67-.17,.95-.36,.39-.26,.45-.8,.47-1.26,.16-3.19,.04-6.25-.17-9.44-.06-.96-1.15-9.26-.62-9.52-3.75,1.53-5.59,5.76-8.8,8.22Z"/>
  <path class="cls-5" d="M514,250.33c0,1.52-1.73,3.12-2.36,4.41-.92,1.87-1.21,4.26-1.9,6.25-.31,.91-.65,1.83-1.12,2.67-.96,1.74-2.5,3.31-2.57,5.3-.03,1.07,.49,1.26,1.3,1.96,2.03,1.75,3.67,3.95,4.77,6.4l-6.06-4.84c1.56,3.06,2.4,6.49,2.42,9.93,.02,2.86-.52,5.71-1.24,8.48-1.09-.31-2,.84-2.55,1.83-1.25,2.25-2.51,4.51-3.76,6.76,.15,.23,.31,.47,.46,.7,2.02-.91,3.79-2.28,5.55-3.64,.87-.68,1.74-1.35,2.62-2.03,.96-.74,1.98-1.59,2.2-2.78,1.48-.06,2.97,.5,4.04,1.53,.69-1.08,1.55-2.05,2.54-2.87-.9,.74-4.48-5.67-4.48-6.52,1.75-.57,3.76,.45,5.18,1.41,1.58,1.07,3.01,2.4,4.79,3.1-1.55-2.13-3.1-4.26-4.64-6.39-.83-1.14-1.68-2.36-1.76-3.76,.82,.78,1.81,1.38,2.87,1.75-1.07-.38-1.43-5.25-1.79-6.25-.9-2.48-1.78-4.93-2.44-7.5-1.33-5.19-2.03-10.54-2.06-15.9Z"/>
</svg>