<?xml version="1.0" encoding="UTF-8"?>
<svg id="OBJECTS" xmlns="http://www.w3.org/2000/svg" xmlns:xlink="http://www.w3.org/1999/xlink" viewBox="0 0 750 500">
  <defs>
    <style>
      .cls-1 {
        fill: #7fadfb;
      }

      .cls-2 {
        filter: url(#outer-glow-1);
      }

      .cls-3 {
        fill: #f3d36c;
      }

      .cls-4 {
        filter: url(#outer-glow-2);
      }

      .cls-5 {
        fill: #84e6bb;
      }
    </style>
    <filter id="outer-glow-1" filterUnits="userSpaceOnUse">
      <feOffset dx="0" dy="0"/>
      <feGaussianBlur result="blur" stdDeviation="5"/>
      <feFlood flood-color="#aeffd8" flood-opacity=".75"/>
      <feComposite in2="blur" operator="in"/>
      <feComposite in="SourceGraphic"/>
    </filter>
    <filter id="outer-glow-2" filterUnits="userSpaceOnUse">
      <feOffset dx="0" dy="0"/>
      <feGaussianBlur result="blur-2" stdDeviation="5"/>
      <feFlood flood-color="#ffd56c" flood-opacity=".75"/>
      <feComposite in2="blur-2" operator="in"/>
      <feComposite in="SourceGraphic"/>
    </filter>
  </defs>
  <g class="cls-2">
    <path class="cls-5" d="M167.56,96.11c0,.91-.74,1.65-1.65,1.65s-1.65-.74-1.65-1.65,.74-1.65,1.65-1.65,1.65,.74,1.65,1.65Z"/>
    <path class="cls-5" d="M735.65,154.58c0,.91-.74,1.65-1.65,1.65s-1.65-.74-1.65-1.65,.74-1.65,1.65-1.65,1.65,.74,1.65,1.65Z"/>
    <path class="cls-5" d="M46.79,149.55c0,.91-.74,1.65-1.65,1.65s-1.65-.74-1.65-1.65,.74-1.65,1.65-1.65,1.65,.74,1.65,1.65Z"/>
    <path class="cls-5" d="M579.19,94.52c0,.88-.71,1.59-1.59,1.59s-1.59-.71-1.59-1.59,.71-1.59,1.59-1.59,1.59,.71,1.59,1.59Z"/>
    <path class="cls-5" d="M267.05,51.02c0,1.31-1.06,2.36-2.36,2.36s-2.36-1.06-2.36-2.36,1.06-2.36,2.36-2.36,2.36,1.06,2.36,2.36Z"/>
    <path class="cls-5" d="M38.37,34.09c0,1.15-.93,2.08-2.08,2.08s-2.08-.93-2.08-2.08,.93-2.08,2.08-2.08,2.08,.93,2.08,2.08Z"/>
    <circle class="cls-5" cx="372.48" cy="151.62" r="2.96"/>
    <g>
      <path class="cls-1" d="M236.17,125.12c0,.53-.43,.97-.97,.97s-.97-.43-.97-.97,.43-.97,.97-.97,.97,.43,.97,.97Z"/>
      <path class="cls-1" d="M223.44,170.9c0,.53-.43,.97-.97,.97s-.97-.43-.97-.97,.43-.97,.97-.97,.97,.43,.97,.97Z"/>
      <path class="cls-1" d="M61.04,205.25c0,.53-.43,.97-.97,.97s-.97-.43-.97-.97,.43-.97,.97-.97,.97,.43,.97,.97Z"/>
      <path class="cls-1" d="M322.68,168.97c0,.53-.43,.97-.97,.97s-.97-.43-.97-.97,.43-.97,.97-.97,.97,.43,.97,.97Z"/>
      <path class="cls-1" d="M114.29,123.36c0,.44-.35,.79-.79,.79s-.79-.35-.79-.79,.35-.79,.79-.79,.79,.35,.79,.79Z"/>
      <path class="cls-1" d="M403.21,113.43c0,.44-.35,.79-.79,.79s-.79-.35-.79-.79,.35-.79,.79-.79,.79,.35,.79,.79Z"/>
      <path class="cls-1" d="M526.29,37.57c0,.44-.35,.79-.79,.79s-.79-.35-.79-.79,.35-.79,.79-.79,.79,.35,.79,.79Z"/>
      <circle class="cls-1" cx="672.8" cy="188.48" r=".79"/>
      <circle class="cls-1" cx="613.44" cy="119.67" r=".79"/>
      <circle class="cls-1" cx="732.35" cy="82.49" r=".79"/>
      <circle class="cls-1" cx="683.78" cy="34.77" r=".79"/>
      <path class="cls-1" d="M182.82,28.15c0,.77-.63,1.4-1.4,1.4s-1.4-.63-1.4-1.4,.63-1.4,1.4-1.4,1.4,.63,1.4,1.4Z"/>
      <path class="cls-1" d="M351.11,36.17c0,.77-.63,1.4-1.4,1.4s-1.4-.63-1.4-1.4,.63-1.4,1.4-1.4,1.4,.63,1.4,1.4Z"/>
      <path class="cls-1" d="M515.06,112.64c0,.77-.63,1.4-1.4,1.4s-1.4-.63-1.4-1.4,.63-1.4,1.4-1.4,1.4,.63,1.4,1.4Z"/>
      <path class="cls-1" d="M655.43,148.67c0,.77-.63,1.4-1.4,1.4s-1.4-.63-1.4-1.4,.63-1.4,1.4-1.4,1.4,.63,1.4,1.4Z"/>
      <path class="cls-1" d="M728.3,190.67c0,.77-.63,1.4-1.4,1.4s-1.4-.63-1.4-1.4,.63-1.4,1.4-1.4,1.4,.63,1.4,1.4Z"/>
      <path class="cls-1" d="M356.09,81.09c0,.77-.63,1.4-1.4,1.4s-1.4-.63-1.4-1.4,.63-1.4,1.4-1.4,1.4,.63,1.4,1.4Z"/>
      <path class="cls-1" d="M21.28,82.68c0,.88-.71,1.59-1.59,1.59s-1.59-.71-1.59-1.59,.71-1.59,1.59-1.59,1.59,.71,1.59,1.59Z"/>
      <path class="cls-1" d="M449.25,16.68c0,.88-.71,1.59-1.59,1.59s-1.59-.71-1.59-1.59,.71-1.59,1.59-1.59,1.59,.71,1.59,1.59Z"/>
      <path class="cls-1" d="M701.85,125.12c0,.88-.71,1.59-1.59,1.59s-1.59-.71-1.59-1.59,.71-1.59,1.59-1.59,1.59,.71,1.59,1.59Z"/>
      <path class="cls-1" d="M545.09,163.52c0,.88-.71,1.59-1.59,1.59s-1.59-.71-1.59-1.59,.71-1.59,1.59-1.59,1.59,.71,1.59,1.59Z"/>
    </g>
  </g>
  <g class="cls-4">
    <polygon class="cls-3" points="129.55 52.03 131.02 59.44 138.43 60.91 131.02 62.39 129.55 69.8 128.07 62.39 120.67 60.91 128.07 59.44 129.55 52.03"/>
    <polygon class="cls-3" points="591.02 25.3 592.5 32.7 599.9 34.18 592.5 35.66 591.02 43.06 589.55 35.66 582.14 34.18 589.55 32.7 591.02 25.3"/>
    <polygon class="cls-3" points="402.42 55.47 403.33 60.01 407.87 60.91 403.33 61.82 402.42 66.36 401.52 61.82 396.98 60.91 401.52 60.01 402.42 55.47"/>
    <polygon class="cls-3" points="20.8 222.58 21.7 227.12 26.25 228.02 21.7 228.93 20.8 233.47 19.89 228.93 15.35 228.02 19.89 227.12 20.8 222.58"/>
    <polygon class="cls-3" points="726.9 222.58 727.8 227.12 732.35 228.02 727.8 228.93 726.9 233.47 725.99 228.93 721.45 228.02 725.99 227.12 726.9 222.58"/>
    <polygon class="cls-3" points="569.23 163.52 570.13 168.06 574.67 168.97 570.13 169.88 569.23 174.42 568.32 169.88 563.78 168.97 568.32 168.06 569.23 163.52"/>
    <polygon class="cls-3" points="689.23 82.03 690.13 86.57 694.67 87.48 690.13 88.38 689.23 92.92 688.32 88.38 683.78 87.48 688.32 86.57 689.23 82.03"/>
    <polygon class="cls-3" points="309.38 114.22 310.28 118.77 314.83 119.67 310.28 120.58 309.38 125.12 308.47 120.58 303.93 119.67 308.47 118.77 309.38 114.22"/>
  </g>
</svg>