<?xml version="1.0" encoding="UTF-8"?>
<svg id="OBJECTS" xmlns="http://www.w3.org/2000/svg" xmlns:xlink="http://www.w3.org/1999/xlink" viewBox="0 0 750 500">
  <defs>
    <style>
      .cls-1 {
        fill: #24407a;
      }

      .cls-2 {
        fill: #7fadfb;
      }

      .cls-3 {
        filter: url(#outer-glow-1);
      }

      .cls-4 {
        fill: none;
        stroke: #24407a;
        stroke-miterlimit: 10;
      }

      .cls-5 {
        fill: #f3d36c;
      }

      .cls-6 {
        filter: url(#outer-glow-2);
      }

      .cls-7 {
        fill: #84e6bb;
      }
    </style>
    <filter id="outer-glow-1" filterUnits="userSpaceOnUse">
      <feOffset dx="0" dy="0"/>
      <feGaussianBlur result="blur" stdDeviation="5"/>
      <feFlood flood-color="#aeffd8" flood-opacity=".75"/>
      <feComposite in2="blur" operator="in"/>
      <feComposite in="SourceGraphic"/>
    </filter>
    <filter id="outer-glow-2" filterUnits="userSpaceOnUse">
      <feOffset dx="0" dy="0"/>
      <feGaussianBlur result="blur-2" stdDeviation="5"/>
      <feFlood flood-color="#ffd56c" flood-opacity=".75"/>
      <feComposite in2="blur-2" operator="in"/>
      <feComposite in="SourceGraphic"/>
    </filter>
  </defs>
  <g>
    <g>
      <path class="cls-1" d="M744.63,473.92c-.73-3.7-2.86-7.23-5.86-9.41,2.23,2.36,2.67,6.73,.83,9.41h-.86c-3.33-3.02-4.71-10.2-2.92-14.18-3.02,2.84-5.74,6.93-7.34,10.75,.35-3.8-.98-7.72-3.58-10.52-2.6-2.79-7.25-5.05-11.07-4.96,5.67,4.16,7.66,11.04,6.49,17.98,.09-3.95-2.22-9.18-5.56-11.29,1.24,4.56-.83,9.65-4.78,12.22h-.35c-2.65-.86-4.64-3.47-4.74-6.25-.1-2.87,2.06-6.88,4.76-7.85-6.22-.06-12.71,3.45-15.27,9.11,.74-4.21-.61-8.73-3.53-11.85-1.4,4.74-3.91,9.16-7.26,12.78-1.37-4.53-1.13-9.53,.67-13.9-3.75,3.96-6.82,8.77-8.6,13.93-1.08-7.16-5.96-13.63-12.55-16.65,2.26,5.63,4.55,11.86,2.57,17.6-1.33-3.54-3.57-6.73-6.44-9.19,.18,4.29-2.28,8.5-5.03,11.8-.88,.28-1.86-.27-2.37-1.04s-.64-1.73-.73-2.65c-.44-4.35,.41-10.01,1.31-14.28-6.02,4.4-12.06,11.22-14.77,18.17,.68-4.55-1.6-10.25-5.71-12.33,1.94,3.48,.58,7.95-2.68,10.24-1.94-.07-3.81-1.26-4.68-3-.88-1.74,1.04-5.76,2.13-7.37-6.61,1.65-13.7,6.88-17.22,12.73h-.02c.91-5.55-1.42-12.21-5.89-15.63,1.16,4.91-2.29,9.58-6.91,11.61-1.72-2.59-.77-7.52,1.01-10.08-6.39,1.88-12.33,6.9-14.63,13.15-.78-6.2-2.91-12.93-6.38-18.13,.8,5.9-.33,11.63-2.44,17.19-1.72-4.25-2.97-9.48-4.69-13.74-4.95,3.02-10.12,6.14-12.21,11.55-2.12-.69-3.9-2.39-4.67-4.48-.77-2.09,.68-5.5,1.85-7.41-7.38,.95-13.92,6.29-15.94,13.45-1.15-4.43-4.16-9.19-7.31-12.51,.06,5.02-1.76,9.4-4.04,13.87-4.82-3.13-6.33-11.66-5.71-17.38-7.7,2.98-13.43,10.38-14.62,18.52h-.51c-1.1-5.59-3.06-11.02-5.82-16-.82,4.48-2.57,8.98-3.39,13.46-1.86-.36-3.51-1.69-4.25-3.43-.75-1.74-.96-4.55,.06-6.15-4.21,1.01-7.47,4.71-7.76,9.03-2.19-.93-3.93-2.85-4.65-5.12-.72-2.26,.09-5.57,1.34-7.59-7.2,1.47-13.7,8.49-14.58,15.79h-.05c-1.19-4.55-2.76-9.05-5.21-13.07-2.47-4.05-5.88-7.62-10.13-9.74,1.49,2.46,2.99,4.96,3.72,7.74s.56,5.93-1.1,8.27c-.19-3-1.17-5.94-2.8-8.47-.71,4.75-3.51,9.14-7.5,11.79-1.46-3.67-.54-8.57,.79-12.29-7.58,1.52-14.32,7.47-16.72,14.82-2.46-.53-4.57-2.45-5.34-4.84-.77-2.39-.73-5.35,.95-7.23-3.49-.78-7.29-.11-10.3,1.82-3.02,1.93-6.11,5.13-6.87,8.63,.77-5.54-2.88-10.79-8.22-12.47,1.8,4.34,.44,9.64-2.75,13.1-2.49-.47-4.18-3.01-4.41-5.53-.23-2.52,.7-5,1.8-7.29,1.09-2.28,2.48-4.73,3.04-7.2-9.15,1.6-17.27,9.31-19.04,18.42,.02-6.84-4.68-13.42-11.02-15.99,3.47,5.72,3.64,13.58-.3,18.99-2.93-.62-5.6-2.43-7.25-4.93-1.65-2.5-2.8-6.13-2.21-9.07-5.5,3.08-9.6,8.48-11.32,14.53h-10c.48-7.05-1.84-14.34-6.66-19.54,.94,5.74-.33,11.81-3.49,16.69l-3.77-9.87c-2.62,1.72-4.67,4.31-5.74,7.26-4.09-3.68-7.91-7.66-11.4-11.91-1.52,5.72-.95,11.92,1.36,17.36h-10.51c-1.3-6.86-4.68-13.33-9.69-18.21-.61,4.69-2.06,9.26-4.27,13.44-2.47-3.72-2.58-8.87-.27-12.69-5.39,3.26-9.41,9.13-9.76,15.42-3.48,.32-6.73-2.47-7.78-5.81-1.06-3.34-.47-7.23,.91-10.45-3.48-.06-6.61,2.36-8.39,5.35-1.78,2.99-3.2,6.51-3.85,9.92-2.32-.42-4.36-2.13-5.19-4.33-.83-2.21-.71-5.22,.76-7.06-4.1-1.45-8.82-1.02-12.6,1.13-3.78,2.15-7.17,5.73-8.02,9.99,.3-3.29-.74-6.68-2.84-9.23-2.1-2.55-5.79-4.41-9.08-4.75,1.86,2.12,2.8,5.02,2.54,7.82-.26,2.81-2.68,6.24-4.89,7.99-3.54-1.97-6.3-5.3-7.59-9.14-1.29-3.84-1.22-8.31,.41-12.02-6.02,4.86-11.62,11.96-12.89,19.59-2.14-.25-4.06-1.86-4.67-3.92-.62-2.06,.89-4.83,2.54-6.21-2.71-.88-5.75-.71-8.36,.44-2.61,1.16-5.32,3.26-6.49,5.87,1.75-3.85,1.78-8.45,.08-12.33-1.7-3.88-4.58-5.76-8.59-7.09,1.57,2.39,2.79,5.06,3.15,7.89s-.17,5.84-1.82,8.17-5.47,3.83-8.32,3.58c-1.8-2.64-2.5-6.02-1.89-9.16,.61-3.14,1.41-6.66,4.07-8.44-9.31,.8-18.1,6.34-22.83,14.4-3.37-3.4-6.21-7.32-8.41-11.57-2.18,7.18-.64,15.3,3.71,21.39h-11.85c.76-13.96-1.92-28.23-7.25-41.08,.45,13.48-.97,27.01-4.2,40.11-.08,.31-.14,.64-.2,.97h-7.19c-12.36-3.11-20.46-17.66-20.46-17.66,0,0-2.53,6.08,1.2,17.66h-8.22c.46-3.28,.43-6.63-.16-9.89-1.19-6.66-5.13-12.43-10.11-17.02,2.65,3.81,3.9,8.57,3.46,13.2-.44,4.62-3.41,9.04-6.74,12.27-2.52-1.68-4.17-4.59-4.31-7.62s1.38-6.92,3.74-8.82c-4.2,.1-8.35,1.58-11.68,4.15s-6.28,6.37-7.44,10.41c2.17-7.42,4.33-15.25,2.71-22.77,0,.01,0,.03,0,.04-2.58,9.86-9.85,18.29-19.35,22,4.27-4.45,6.09-10.73,5.81-16.89-3.88,7.24-8.99,13.81-15.06,19.34-3.91-7.05-6.58-14.79-7.85-22.75-3.01,7.73-3.12,16.48-.62,24.38H0v26.08H750v-26.08h-5.37Z"/>
      <path class="cls-1" d="M45.72,447.14c.06,.22,.1,.45,.14,.67,.05-.22,.06-.64-.14-.67Z"/>
    </g>
    <g>
      <path class="cls-4" d="M110.18,485.57c-11.02-16.86-16.59-37.31-15.22-57.42"/>
      <g>
        <path class="cls-1" d="M98.68,428.46c-.62,4.4-2.46,7.78-4.1,7.55-1.64-.23-2.47-3.99-1.84-8.39,.62-4.4,2.46-7.78,4.1-7.55,1.64,.23,2.47,3.99,1.84,8.39Z"/>
        <path class="cls-1" d="M91.01,435.66c3.47,2.78,5.44,6.09,4.4,7.38-1.04,1.29-4.69,.09-8.16-2.69-3.47-2.78-5.44-6.09-4.4-7.38,1.04-1.29,4.69-.09,8.16,2.69Z"/>
        <path class="cls-1" d="M91.78,447.15c3.72,2.44,5.99,5.54,5.09,6.93-.91,1.39-4.66,.53-8.38-1.9-3.72-2.44-5.99-5.54-5.09-6.93,.91-1.39,4.66-.53,8.38,1.9Z"/>
        <path class="cls-1" d="M103.08,440.72c-3.64,2.56-7.36,3.53-8.31,2.18-.95-1.36,1.22-4.53,4.86-7.09s7.36-3.53,8.31-2.18c.95,1.36-1.22,4.53-4.86,7.09Z"/>
        <path class="cls-1" d="M105.02,450.83c-3.38,2.89-6.99,4.22-8.07,2.96-1.08-1.26,.78-4.63,4.16-7.52s6.99-4.22,8.07-2.96c1.08,1.26-.78,4.63-4.16,7.52Z"/>
        <path class="cls-1" d="M94.07,458.8c4.01,1.91,6.69,4.68,5.98,6.18-.71,1.5-4.55,1.16-8.56-.75-4.01-1.91-6.69-4.68-5.98-6.18,.71-1.5,4.55-1.16,8.56,.75Z"/>
        <path class="cls-1" d="M107.68,460.65c-2.95,3.32-6.35,5.12-7.59,4.02s.15-4.69,3.1-8.01c2.95-3.32,6.35-5.12,7.59-4.02,1.24,1.1-.15,4.69-3.1,8.01Z"/>
      </g>
    </g>
    <g>
      <path class="cls-4" d="M551.63,485.57c-11.02-16.86-16.59-37.31-15.22-57.42"/>
      <g>
        <path class="cls-1" d="M540.13,428.46c-.62,4.4-2.46,7.78-4.1,7.55-1.64-.23-2.47-3.99-1.84-8.39,.62-4.4,2.46-7.78,4.1-7.55,1.64,.23,2.47,3.99,1.84,8.39Z"/>
        <path class="cls-1" d="M532.45,435.66c3.47,2.78,5.44,6.09,4.4,7.38-1.04,1.29-4.69,.09-8.16-2.69-3.47-2.78-5.44-6.09-4.4-7.38,1.04-1.29,4.69-.09,8.16,2.69Z"/>
        <path class="cls-1" d="M533.22,447.15c3.72,2.44,5.99,5.54,5.09,6.93-.91,1.39-4.66,.53-8.38-1.9-3.72-2.44-5.99-5.54-5.09-6.93s4.66-.53,8.38,1.9Z"/>
        <path class="cls-1" d="M544.52,440.72c-3.64,2.56-7.36,3.53-8.31,2.18-.95-1.36,1.22-4.53,4.86-7.09s7.36-3.53,8.31-2.18-1.22,4.53-4.86,7.09Z"/>
        <path class="cls-1" d="M546.46,450.83c-3.38,2.89-6.99,4.22-8.07,2.96-1.08-1.26,.78-4.63,4.16-7.52,3.38-2.89,6.99-4.22,8.07-2.96,1.08,1.26-.78,4.63-4.16,7.52Z"/>
        <path class="cls-1" d="M535.51,458.8c4.01,1.91,6.69,4.68,5.98,6.18-.71,1.5-4.55,1.16-8.56-.75-4.01-1.91-6.69-4.68-5.98-6.18,.71-1.5,4.55-1.16,8.56,.75Z"/>
        <path class="cls-1" d="M549.13,460.65c-2.95,3.32-6.35,5.12-7.59,4.02s.15-4.69,3.1-8.01c2.95-3.32,6.35-5.12,7.59-4.02,1.24,1.1-.15,4.69-3.1,8.01Z"/>
      </g>
    </g>
    <g>
      <path class="cls-4" d="M556.81,476.65c5.83-19.28,17.92-36.69,34.21-48.56"/>
      <g>
        <path class="cls-1" d="M593.18,431.13c-3.77,2.35-7.54,3.12-8.42,1.71s1.47-4.45,5.24-6.81c3.77-2.35,7.54-3.12,8.42-1.71s-1.47,4.45-5.24,6.81Z"/>
        <path class="cls-1" d="M582.73,429.88c.1,4.45-1.17,8.08-2.82,8.12-1.66,.04-3.08-3.54-3.18-7.98-.1-4.45,1.17-8.08,2.82-8.12,1.66-.04,3.08,3.54,3.18,7.98Z"/>
        <path class="cls-1" d="M574.41,437.86c.52,4.42-.39,8.15-2.04,8.35-1.65,.19-3.41-3.23-3.93-7.64-.52-4.42,.39-8.15,2.04-8.35s3.41,3.23,3.93,7.64Z"/>
        <path class="cls-1" d="M586.6,442.38c-4.3-1.14-7.44-3.37-7.01-4.97,.43-1.6,4.25-1.98,8.55-.84,4.3,1.14,7.44,3.37,7.01,4.97-.43,1.6-4.25,1.98-8.55,.84Z"/>
        <path class="cls-1" d="M580.11,450.36c-4.39-.73-7.72-2.64-7.45-4.28,.27-1.64,4.05-2.37,8.43-1.65s7.72,2.64,7.45,4.28c-.27,1.64-4.05,2.37-8.43,1.65Z"/>
        <path class="cls-1" d="M566.96,447.1c1.11,4.3,.72,8.13-.89,8.55-1.61,.42-3.81-2.74-4.92-7.04-1.11-4.3-.72-8.13,.89-8.55,1.61-.42,3.81,2.74,4.92,7.04Z"/>
        <path class="cls-1" d="M574.3,458.72c-4.44-.13-8.01-1.57-7.96-3.23,.05-1.66,3.69-2.9,8.13-2.77,4.44,.13,8.01,1.57,7.96,3.23-.05,1.66-3.69,2.9-8.13,2.77Z"/>
      </g>
    </g>
    <g>
      <path class="cls-4" d="M295.58,482.92c5.18-19.46,4.05-40.63-3.57-59.3"/>
      <g>
        <path class="cls-1" d="M288.57,425.08c1.97,3.98,4.78,6.62,6.27,5.88,1.49-.74,1.09-4.56-.88-8.55-1.97-3.98-4.78-6.62-6.27-5.88-1.49,.74-1.09,4.56,.88,8.55Z"/>
        <path class="cls-1" d="M298.12,429.51c-2.42,3.73-3.25,7.49-1.86,8.39,1.39,.9,4.48-1.39,6.9-5.12,2.42-3.73,3.25-7.49,1.86-8.39s-4.48,1.39-6.9,5.12Z"/>
        <path class="cls-1" d="M301,440.67c-2.76,3.48-3.95,7.14-2.65,8.17,1.3,1.03,4.59-.96,7.36-4.44,2.76-3.48,3.95-7.14,2.65-8.17-1.3-1.03-4.59,.96-7.36,4.44Z"/>
        <path class="cls-1" d="M288.25,438.11c4.26,1.29,8.09,1.05,8.58-.54,.48-1.59-2.58-3.92-6.84-5.21-4.26-1.29-8.1-1.05-8.58,.54s2.58,3.92,6.84,5.21Z"/>
        <path class="cls-1" d="M289.58,448.31c4.11,1.69,7.96,1.81,8.59,.28,.63-1.53-2.19-4.15-6.31-5.83-4.11-1.69-7.96-1.81-8.59-.28-.63,1.53,2.19,4.15,6.31,5.83Z"/>
        <path class="cls-1" d="M302.48,452.44c-3.21,3.08-4.88,6.54-3.74,7.74,1.15,1.2,4.68-.33,7.89-3.4,3.21-3.08,4.88-6.54,3.74-7.74-1.15-1.2-4.68,.33-7.89,3.4Z"/>
        <path class="cls-1" d="M290.13,458.48c3.85,2.23,7.64,2.87,8.47,1.44,.83-1.44-1.61-4.41-5.46-6.63-3.85-2.23-7.64-2.87-8.47-1.44-.83,1.44,1.61,4.41,5.46,6.63Z"/>
      </g>
    </g>
    <g>
      <path class="cls-4" d="M713.76,481.3c-4.63-19.6-15.62-37.73-31.14-50.59"/>
      <g>
        <path class="cls-1" d="M680.28,433.62c3.62,2.58,7.34,3.58,8.3,2.23s-1.19-4.54-4.81-7.12c-3.62-2.58-7.34-3.58-8.3-2.23-.96,1.35,1.19,4.54,4.81,7.12Z"/>
        <path class="cls-1" d="M690.79,433.02c-.37,4.43,.66,8.14,2.32,8.27,1.65,.14,3.29-3.34,3.67-7.77,.37-4.43-.66-8.14-2.32-8.27-1.65-.14-3.29,3.34-3.67,7.77Z"/>
        <path class="cls-1" d="M698.59,441.49c-.79,4.37-.11,8.16,1.52,8.46,1.63,.3,3.6-3.01,4.39-7.39,.79-4.38,.11-8.16-1.52-8.46-1.63-.3-3.6,3.01-4.39,7.39Z"/>
        <path class="cls-1" d="M686.14,445.25c4.36-.87,7.63-2.9,7.3-4.53-.33-1.63-4.12-2.24-8.48-1.36-4.36,.87-7.63,2.9-7.3,4.53,.33,1.63,4.12,2.24,8.48,1.36Z"/>
        <path class="cls-1" d="M692.13,453.62c4.42-.45,7.87-2.16,7.7-3.81-.17-1.65-3.89-2.62-8.32-2.17-4.42,.45-7.87,2.16-7.7,3.81,.17,1.65,3.89,2.62,8.32,2.17Z"/>
        <path class="cls-1" d="M705.45,451.18c-1.38,4.23-1.22,8.07,.36,8.59,1.58,.51,3.97-2.5,5.35-6.72,1.38-4.23,1.22-8.07-.36-8.59-1.58-.51-3.97,2.5-5.35,6.72Z"/>
        <path class="cls-1" d="M697.42,462.32c4.44,.15,8.09-1.08,8.15-2.73,.06-1.66-3.5-3.12-7.95-3.27-4.44-.15-8.09,1.08-8.15,2.73-.06,1.66,3.5,3.12,7.95,3.27Z"/>
      </g>
    </g>
  </g>
  <g>
    <g class="cls-3">
      <path class="cls-7" d="M167.56,96.11c0,.91-.74,1.65-1.65,1.65s-1.65-.74-1.65-1.65,.74-1.65,1.65-1.65,1.65,.74,1.65,1.65Z"/>
      <path class="cls-7" d="M735.65,154.58c0,.91-.74,1.65-1.65,1.65s-1.65-.74-1.65-1.65,.74-1.65,1.65-1.65,1.65,.74,1.65,1.65Z"/>
      <path class="cls-7" d="M46.79,149.55c0,.91-.74,1.65-1.65,1.65s-1.65-.74-1.65-1.65,.74-1.65,1.65-1.65,1.65,.74,1.65,1.65Z"/>
      <path class="cls-7" d="M579.19,94.52c0,.88-.71,1.59-1.59,1.59s-1.59-.71-1.59-1.59,.71-1.59,1.59-1.59,1.59,.71,1.59,1.59Z"/>
      <path class="cls-7" d="M267.05,51.02c0,1.31-1.06,2.36-2.36,2.36s-2.36-1.06-2.36-2.36,1.06-2.36,2.36-2.36,2.36,1.06,2.36,2.36Z"/>
      <path class="cls-7" d="M38.37,34.09c0,1.15-.93,2.08-2.08,2.08s-2.08-.93-2.08-2.08,.93-2.08,2.08-2.08,2.08,.93,2.08,2.08Z"/>
      <circle class="cls-7" cx="372.48" cy="151.62" r="2.96"/>
      <g>
        <path class="cls-2" d="M236.17,125.12c0,.53-.43,.97-.97,.97s-.97-.43-.97-.97,.43-.97,.97-.97,.97,.43,.97,.97Z"/>
        <path class="cls-2" d="M223.44,170.9c0,.53-.43,.97-.97,.97s-.97-.43-.97-.97,.43-.97,.97-.97,.97,.43,.97,.97Z"/>
        <path class="cls-2" d="M61.04,205.25c0,.53-.43,.97-.97,.97s-.97-.43-.97-.97,.43-.97,.97-.97,.97,.43,.97,.97Z"/>
        <path class="cls-2" d="M322.68,168.97c0,.53-.43,.97-.97,.97s-.97-.43-.97-.97,.43-.97,.97-.97,.97,.43,.97,.97Z"/>
        <path class="cls-2" d="M114.29,123.36c0,.44-.35,.79-.79,.79s-.79-.35-.79-.79,.35-.79,.79-.79,.79,.35,.79,.79Z"/>
        <path class="cls-2" d="M403.21,113.43c0,.44-.35,.79-.79,.79s-.79-.35-.79-.79,.35-.79,.79-.79,.79,.35,.79,.79Z"/>
        <path class="cls-2" d="M526.29,37.57c0,.44-.35,.79-.79,.79s-.79-.35-.79-.79,.35-.79,.79-.79,.79,.35,.79,.79Z"/>
        <circle class="cls-2" cx="672.8" cy="188.48" r=".79"/>
        <circle class="cls-2" cx="613.44" cy="119.67" r=".79"/>
        <circle class="cls-2" cx="732.35" cy="82.49" r=".79"/>
        <circle class="cls-2" cx="683.78" cy="34.77" r=".79"/>
        <path class="cls-2" d="M182.82,28.15c0,.77-.63,1.4-1.4,1.4s-1.4-.63-1.4-1.4,.63-1.4,1.4-1.4,1.4,.63,1.4,1.4Z"/>
        <path class="cls-2" d="M351.11,36.17c0,.77-.63,1.4-1.4,1.4s-1.4-.63-1.4-1.4,.63-1.4,1.4-1.4,1.4,.63,1.4,1.4Z"/>
        <path class="cls-2" d="M515.06,112.64c0,.77-.63,1.4-1.4,1.4s-1.4-.63-1.4-1.4,.63-1.4,1.4-1.4,1.4,.63,1.4,1.4Z"/>
        <path class="cls-2" d="M655.43,148.67c0,.77-.63,1.4-1.4,1.4s-1.4-.63-1.4-1.4,.63-1.4,1.4-1.4,1.4,.63,1.4,1.4Z"/>
        <path class="cls-2" d="M728.3,190.67c0,.77-.63,1.4-1.4,1.4s-1.4-.63-1.4-1.4,.63-1.4,1.4-1.4,1.4,.63,1.4,1.4Z"/>
        <path class="cls-2" d="M356.09,81.09c0,.77-.63,1.4-1.4,1.4s-1.4-.63-1.4-1.4,.63-1.4,1.4-1.4,1.4,.63,1.4,1.4Z"/>
        <path class="cls-2" d="M21.28,82.68c0,.88-.71,1.59-1.59,1.59s-1.59-.71-1.59-1.59,.71-1.59,1.59-1.59,1.59,.71,1.59,1.59Z"/>
        <path class="cls-2" d="M449.25,16.68c0,.88-.71,1.59-1.59,1.59s-1.59-.71-1.59-1.59,.71-1.59,1.59-1.59,1.59,.71,1.59,1.59Z"/>
        <path class="cls-2" d="M701.85,125.12c0,.88-.71,1.59-1.59,1.59s-1.59-.71-1.59-1.59,.71-1.59,1.59-1.59,1.59,.71,1.59,1.59Z"/>
        <path class="cls-2" d="M545.09,163.52c0,.88-.71,1.59-1.59,1.59s-1.59-.71-1.59-1.59,.71-1.59,1.59-1.59,1.59,.71,1.59,1.59Z"/>
      </g>
    </g>
    <g class="cls-6">
      <polygon class="cls-5" points="129.55 52.03 131.02 59.44 138.43 60.91 131.02 62.39 129.55 69.8 128.07 62.39 120.67 60.91 128.07 59.44 129.55 52.03"/>
      <polygon class="cls-5" points="591.02 25.3 592.5 32.7 599.9 34.18 592.5 35.66 591.02 43.06 589.55 35.66 582.14 34.18 589.55 32.7 591.02 25.3"/>
      <polygon class="cls-5" points="402.42 55.47 403.33 60.01 407.87 60.91 403.33 61.82 402.42 66.36 401.52 61.82 396.98 60.91 401.52 60.01 402.42 55.47"/>
      <polygon class="cls-5" points="20.8 222.58 21.7 227.12 26.25 228.02 21.7 228.93 20.8 233.47 19.89 228.93 15.35 228.02 19.89 227.12 20.8 222.58"/>
      <polygon class="cls-5" points="726.9 222.58 727.8 227.12 732.35 228.02 727.8 228.93 726.9 233.47 725.99 228.93 721.45 228.02 725.99 227.12 726.9 222.58"/>
      <polygon class="cls-5" points="569.23 163.52 570.13 168.06 574.67 168.97 570.13 169.88 569.23 174.42 568.32 169.88 563.78 168.97 568.32 168.06 569.23 163.52"/>
      <polygon class="cls-5" points="689.23 82.03 690.13 86.57 694.67 87.48 690.13 88.38 689.23 92.92 688.32 88.38 683.78 87.48 688.32 86.57 689.23 82.03"/>
      <polygon class="cls-5" points="309.38 114.22 310.28 118.77 314.83 119.67 310.28 120.58 309.38 125.12 308.47 120.58 303.93 119.67 308.47 118.77 309.38 114.22"/>
    </g>
  </g>
</svg>