<?xml version="1.0" encoding="UTF-8"?>
<svg xmlns="http://www.w3.org/2000/svg" xmlns:xlink="http://www.w3.org/1999/xlink" viewBox="0 0 2807 1604">
  <defs>
    <style>
      .cls-1 {
        fill: url(#linear-gradient-2);
      }

      .cls-2 {
        fill: url(#linear-gradient-17);
      }

      .cls-3 {
        fill: url(#linear-gradient-15);
      }

      .cls-4 {
        fill: url(#linear-gradient-18);
      }

      .cls-5 {
        fill: url(#linear-gradient-14);
      }

      .cls-6 {
        fill: url(#linear-gradient-20);
      }

      .cls-7 {
        fill: url(#linear-gradient-6);
      }

      .cls-8 {
        isolation: isolate;
      }

      .cls-9 {
        fill: url(#linear-gradient-11);
      }

      .cls-10 {
        fill: url(#linear-gradient-10);
      }

      .cls-11 {
        fill: url(#linear-gradient-16);
      }

      .cls-12 {
        fill: url(#linear-gradient-21);
      }

      .cls-13 {
        fill: url(#linear-gradient-25);
      }

      .cls-14 {
        fill: url(#linear-gradient-5);
      }

      .cls-15 {
        mix-blend-mode: color-dodge;
      }

      .cls-16 {
        fill: url(#linear-gradient-7);
      }

      .cls-17 {
        fill: url(#linear-gradient-24);
      }

      .cls-18 {
        fill: url(#linear-gradient-9);
      }

      .cls-19 {
        fill: url(#linear-gradient-22);
      }

      .cls-20 {
        fill: url(#linear-gradient-3);
      }

      .cls-21 {
        fill: url(#linear-gradient);
      }

      .cls-22 {
        fill: url(#linear-gradient-23);
      }

      .cls-23 {
        fill: url(#linear-gradient-19);
      }

      .cls-24 {
        fill: url(#linear-gradient-4);
      }

      .cls-25 {
        fill: url(#linear-gradient-8);
      }

      .cls-26 {
        fill: url(#linear-gradient-12);
      }

      .cls-27 {
        fill: url(#linear-gradient-13);
      }

      .cls-28 {
        fill: url(#linear-gradient-26);
      }
    </style>
    <linearGradient id="linear-gradient" x1="1446.93" y1="1583.69" x2="1446.93" y2="906.51" gradientUnits="userSpaceOnUse">
      <stop offset="0" stop-color="#adadad"/>
      <stop offset=".04" stop-color="#a3a3a3"/>
      <stop offset=".38" stop-color="#5d5d5d"/>
      <stop offset=".67" stop-color="#2b2b2b"/>
      <stop offset=".88" stop-color="#0b0b0b"/>
      <stop offset="1" stop-color="#000"/>
    </linearGradient>
    <linearGradient id="linear-gradient-2" x1="1453.77" y1="1583.7" x2="1453.77" y2="906.51" xlink:href="#linear-gradient"/>
    <linearGradient id="linear-gradient-3" y1="1583.7" y2="906.51" xlink:href="#linear-gradient"/>
    <linearGradient id="linear-gradient-4" y1="1583.7" y2="906.51" xlink:href="#linear-gradient"/>
    <linearGradient id="linear-gradient-5" y1="1583.7" y2="906.51" xlink:href="#linear-gradient"/>
    <linearGradient id="linear-gradient-6" y1="1583.7" y2="906.5" xlink:href="#linear-gradient"/>
    <linearGradient id="linear-gradient-7" y1="1583.7" y2="906.5" xlink:href="#linear-gradient"/>
    <linearGradient id="linear-gradient-8" y1="1583.69" y2="906.5" xlink:href="#linear-gradient"/>
    <linearGradient id="linear-gradient-9" y1="1583.69" y2="906.5" xlink:href="#linear-gradient"/>
    <linearGradient id="linear-gradient-10" y1="1583.69" y2="906.5" xlink:href="#linear-gradient"/>
    <linearGradient id="linear-gradient-11" y1="1583.69" y2="906.52" xlink:href="#linear-gradient"/>
    <linearGradient id="linear-gradient-12" x1="105.71" y1="1583.69" x2="105.71" y2="906.51" xlink:href="#linear-gradient"/>
    <linearGradient id="linear-gradient-13" x1="192.25" y1="1583.69" x2="192.25" y2="906.51" xlink:href="#linear-gradient"/>
    <linearGradient id="linear-gradient-14" x1="278.8" y1="1583.69" x2="278.8" y2="906.51" xlink:href="#linear-gradient"/>
    <linearGradient id="linear-gradient-15" x1="365.36" y1="1583.69" x2="365.36" y2="906.51" xlink:href="#linear-gradient"/>
    <linearGradient id="linear-gradient-16" x1="451.95" y1="1583.69" x2="451.95" y2="906.51" xlink:href="#linear-gradient"/>
    <linearGradient id="linear-gradient-17" x1="753.31" y1="1583.69" x2="753.31" y2="906.51" gradientTransform="translate(1051.83 -170.92) rotate(41.19)" xlink:href="#linear-gradient"/>
    <linearGradient id="linear-gradient-18" x1="1104.25" y1="1583.69" x2="1104.25" y2="906.51" gradientTransform="translate(1698.06 -296.4) rotate(60.28)" xlink:href="#linear-gradient"/>
    <linearGradient id="linear-gradient-19" x1="1455.19" y1="1583.69" x2="1455.19" y2="906.51" xlink:href="#linear-gradient"/>
    <linearGradient id="linear-gradient-20" x1="1806.13" y1="1583.69" x2="1806.13" y2="906.51" gradientTransform="translate(888.57 -722.38) rotate(29.71)" xlink:href="#linear-gradient"/>
    <linearGradient id="linear-gradient-21" x1="2157.06" y1="1583.69" x2="2157.06" y2="906.51" gradientTransform="translate(1723.66 -1174.33) rotate(48.77)" xlink:href="#linear-gradient"/>
    <linearGradient id="linear-gradient-22" x1="2450.16" y1="1583.69" x2="2450.16" y2="906.51" xlink:href="#linear-gradient"/>
    <linearGradient id="linear-gradient-23" x1="2536.75" y1="1583.69" x2="2536.75" y2="906.51" xlink:href="#linear-gradient"/>
    <linearGradient id="linear-gradient-24" x1="2623.31" y1="1583.69" x2="2623.31" y2="906.51" xlink:href="#linear-gradient"/>
    <linearGradient id="linear-gradient-25" x1="2709.86" y1="1583.69" x2="2709.86" y2="906.51" xlink:href="#linear-gradient"/>
    <linearGradient id="linear-gradient-26" x1="2796.4" y1="1583.69" x2="2796.4" y2="906.51" xlink:href="#linear-gradient"/>
  </defs>
  <g class="cls-8">
    <g id="Layer_1" data-name="Layer 1">
      <g class="cls-15">
        <polygon class="cls-21" points="2839.41 1000.76 70.67 1000.79 -32.91 1023.48 -32.91 1026.3 70.97 1003.54 2839.11 1003.51 2926.76 1022.71 2926.76 1019.89 2839.41 1000.76"/>
        <rect class="cls-1" x="-19.21" y="1020.51" width="2945.97" height="2.78"/>
        <rect class="cls-20" x="-32.91" y="1043.02" width="2959.67" height="2.78"/>
        <rect class="cls-24" x="-32.91" y="1068.91" width="2959.67" height="2.78"/>
        <rect class="cls-14" x="-32.91" y="1098.98" width="2959.67" height="2.78"/>
        <rect class="cls-7" x="-32.91" y="1134.36" width="2959.67" height="2.78"/>
        <rect class="cls-16" x="-32.91" y="1176.57" width="2959.67" height="2.78"/>
        <rect class="cls-25" x="-32.91" y="1227.81" width="2959.67" height="2.78"/>
        <rect class="cls-18" x="-32.91" y="1291.32" width="2959.67" height="2.78"/>
        <rect class="cls-10" x="-32.91" y="1372.13" width="2959.67" height="2.78"/>
        <rect class="cls-9" x="-32.91" y="1478.38" width="2959.67" height="2.78"/>
        <polygon class="cls-26" points="-32.91 1072.91 244.33 1003.5 243.66 1000.8 -32.91 1070.04 -32.91 1072.91"/>
        <polygon class="cls-27" points="-32.91 1135.02 417.42 1003.48 416.63 1000.81 -32.91 1132.12 -32.91 1135.02"/>
        <polygon class="cls-5" points="-32.91 1221.98 590.51 1003.46 589.59 1000.83 -32.91 1219.03 -32.91 1221.98"/>
        <polygon class="cls-3" points="-32.91 1352.43 763.63 1003.42 762.52 1000.87 -32.91 1349.39 -32.91 1352.43"/>
        <polygon class="cls-11" points="-32.91 1569.85 936.81 1003.35 935.4 1000.95 -32.91 1566.63 -32.91 1569.85"/>
        <rect class="cls-2" x="280.2" y="1312.56" width="946.22" height="2.78" transform="translate(-678.92 821.35) rotate(-41.19)"/>
        <rect class="cls-4" x="745.26" y="1312.56" width="717.98" height="2.79" transform="translate(-584.28 1621.68) rotate(-60.28)"/>
        <rect class="cls-23" x="1453.79" y="1002.15" width="2.78" height="623.61"/>
        <rect class="cls-6" x="1804.73" y="954.96" width="2.79" height="717.98" transform="translate(-413.78 1067.8) rotate(-29.71)"/>
        <rect class="cls-12" x="2155.67" y="840.84" width="2.78" height="946.22" transform="translate(-252.78 2070.3) rotate(-48.77)"/>
        <polygon class="cls-19" points="2926.76 1556.98 1974.97 1000.95 1973.57 1003.35 2926.76 1560.2 2926.76 1556.98"/>
        <polygon class="cls-22" points="2926.76 1342.15 2147.85 1000.87 2146.74 1003.42 2926.76 1345.19 2926.76 1342.15"/>
        <polygon class="cls-17" points="2926.76 1213.24 2320.78 1000.83 2319.87 1003.46 2926.76 1216.19 2926.76 1213.24"/>
        <polygon class="cls-13" points="2926.76 1127.3 2493.74 1000.81 2492.96 1003.48 2926.76 1130.19 2926.76 1127.3"/>
        <polygon class="cls-28" points="2926.76 1065.9 2666.71 1000.8 2666.04 1003.5 2926.76 1068.77 2926.76 1065.9"/>
      </g>
    </g>
  </g>
</svg>